<?xml version="1.0" standalone="no"?>
<svg xmlns="http://www.w3.org/2000/svg" xmlns:xlink="http://www.w3.org/1999/xlink" width="970" height="340"><rect fill="white" height="340" width="970"/><g><path d="M26.0978721855071 24.502484004871906 L944.1335253396593 26.569562339811416 L944.9383858758287 136.71035745530494 L23.98421255579704 140.30082312976862" stroke="none" stroke-width="0" fill="rgb(224, 224, 224)"/><path d="M25.130860377871606 25.058696272000088 C385.7353294828365 24.81134202630456, 747.233400776283 24.361245866097974, 945.55707405031 24.536136107110142 M943.9666215876514 26.29951813699207 C945.1397927065394 60.06979498210209, 945.2452792992702 89.50116509344977, 943.4860899229983 136.58855156200593 M945.0442487150465 138.4508162284999 C673.8639910068565 138.06157452340298, 403.173384636938 138.26567907218237, 24.70910779282905 139.00117271462028 M24.04731256445712 138.66104828845923 C24.428039506912793 117.28359027957845, 25.6746308173027 93.28268325972495, 26.896466252344506 24.803919433975015" stroke="rgb(0, 0, 0)" stroke-width="1" fill="none"/></g><g><path d="M43.843786624357826 25.357074490733506 L946.4807040655968 26.302669337538617 L943.3250046247982 138.9681965718765 L44.98673906353033 139.09595273334662" stroke="none" stroke-width="0" fill="rgb(196, 215, 237)"/><path d="M45.040107175781294 24.79177888833393 C282.44031149982527 25.848249321047224, 519.1406231318412 25.099937728138208, 945.2951720364122 25.606272578802123 M943.3012561711853 24.59203246811502 C946.1449604404622 59.72587376004896, 946.6065277370024 97.19898509832977, 943.5529547102183 139.15714383067296 M944.7876806510981 137.91447811674763 C733.2813361963764 137.98622477853917, 520.5010583681665 137.54689027552016, 45.29948660759171 138.48010782010957 M43.54597217211577 137.39482739561237 C42.209648630232635 104.04623187634272, 44.92533225485259 71.54394684859597, 43.54949012049768 26.432087982410216" stroke="rgb(196, 215, 237)" stroke-width="1" fill="none"/></g><g><path d="M45.93626080625629 23.98363003461109 L66.14965882254344 25.66848915384039 L66.65905787320447 138.72525016854138 L46.84645774132142 139.0630973811284" stroke="none" stroke-width="0" fill="rgb(224, 224, 224)"/><path d="M46.49288712112942 25.627505474759303 C54.06837930214681 25.643881444111493, 59.07239178592304 26.304693683058588, 66.39963674550015 23.028406655890468 M44.19565944183017 25.876461764750143 C49.62825045714632 24.648499562093704, 54.95531607109796 25.38547288085634, 65.74434875583592 24.39961365441018 M63.62774719623078 23.550925393765183 C63.442161868362916 50.232529330264214, 62.94447211291557 77.24607913438795, 66.11730704969148 139.62076441336623 M65.0921665690669 24.948782834755992 C64.79584703349533 51.22939114592033, 63.932423397358455 75.92946082273923, 64.54856116415833 137.92517024176922 M66.78633366738711 139.80808133309918 C59.3765245825775 137.08953986473063, 50.91665666798906 136.33441874345928, 45.05366746535057 136.59650829356127 M65.84865489630086 139.26037244294142 C58.8918459012811 137.90450879197596, 53.96368864439041 138.77917717975367, 44.96980143675806 139.24325639766428 M44.20799519634994 137.95608791307302 C43.75337262242831 113.06702650780439, 45.00830960482943 88.36963062450323, 43.487026473486715 25.305651794274652 M45.17175983461565 137.88505031622418 C44.62844318459025 97.05201086976454, 44.575827048332656 55.325448520139986, 45.436520725806794 24.412862535532867" stroke="rgb(224, 224, 224)" stroke-width="1" fill="none"/></g><g><path d="M45.24335811706668 25.12388209982673 C340.19783592155403 22.892467999122253, 635.5689737234003 22.920925643949055, 945.4704292694753 25.2591012869688 M943.1154575207643 26.883821326937152 C945.704773615851 46.82361762471247, 947.307256842813 72.55826531194238, 944.6718919231736 138.95016438550664 M945.1817523096853 138.20516124233006 C686.8346789916942 135.91268015330044, 429.3604405017409 136.8088236806599, 45.17219630572701 138.53134893738175 M44.70525630764532 137.5390698678316 C42.977095552238616 109.61817878871372, 46.80147924210884 78.20846757396703, 45.49288881328262 24.218018263585883" stroke="rgb(0, 0, 0)" stroke-width="1" fill="none"/></g><g class="text-container" transform="matrix(0 -1 1 0 48.1953 81.6786)"><text font-family="'Arial'" font-size="12px" font-style="normal" font-weight="normal" text-anchor="middle" fill="rgb(0,0,0)" fill-opacity="1" dy="0.93359375em" style="font-style: normal;font-weight: 400;font-size: 12px;font-family: Comic Sans MS, cursive;">Applicant</text></g><g><path d="M66.81656055390998 26.035408843668776 L944.9839316774015 23.40748627233918 L945.6407126447712 137.6210956051041 L66.5717750143959 138.87632564698163" stroke="none" stroke-width="0" fill="rgba(255, 255, 255, 0)"/><path d="M64.56853578140776 24.256950999519297 C262.3474875320323 25.60004187324152, 458.86232891328484 25.485688588206887, 944.9622387016962 24.634603057136868 M65.10657237881954 24.910002522084774 C252.18549658142504 22.86268592815833, 439.0500516310253 23.074543564775233, 945.2806913865772 24.811990088656003 M944.9952771486221 25.681523019238533 C944.1888642490336 60.72863581348527, 943.5680149180904 96.32106920532733, 943.1215367729718 140.0858558924429 M945.2764107524755 25.041038340155247 C945.5285177834415 48.723390884278636, 944.3981356138165 73.37445482293722, 945.0916487241567 137.76568378584085 M945.2748813160455 138.6420003450458 C687.3011824466768 140.4071788481557, 431.23399044609494 140.9913082510741, 64.99921405078608 139.03460377186985 M945.1000769139099 138.55068708533122 C717.9961782883034 138.4888301038618, 491.4035813736779 138.26071365253924, 65.13762794032736 138.21815611526452 M63.64710799282995 137.4078007725911 C64.53131000323282 116.40164531251521, 66.02129468499218 92.63670653054025, 64.63242101950524 23.81088299464452 M65.30383329371978 139.1136373875747 C64.4597731247214 104.72183959884327, 65.93402368554192 70.60782681309101, 65.75935972520325 25.09545586194856" stroke="rgb(0, 0, 0)" stroke-width="1" fill="none"/></g><g><path d="M124.4194464810252 80.89031743726977 M123.58740588363275 78.2792692032721 C135.76890997941234 80.05516405887172, 144.10052934680732 81.08110517994866, 157.3301537851475 78.05538530677516" stroke="rgb(0, 0, 0)" stroke-width="1" fill="none"/></g><g><path d="M156.28656509217774 78.07622361463777 L164.5384559421939 79.33880720143412 L157.86105442188966 83.59112264099636 L154.96811076855283 75.752626255229" stroke="none" stroke-width="0" fill="rgb(0, 0, 0)"/><path d="M155.6724764832133 75.54761765931366 M156.50455315481355 76.64095297506644 C158.17855382808247 78.3513486974798, 161.23680914505255 79.69205240176832, 164.21633466897782 79.15173833530426 M164.04258286514147 79.1953319463523 C160.9675991915544 81.34149198893546, 159.36640600855947 82.26011401858705, 155.29444096018776 83.12645026919286 M156.0990891098611 82.96171997813015 C155.99835228810144 80.94779300173556, 155.51277054408445 79.11341033365039, 155.8415127760093 76.75073412957224" stroke="rgb(0, 0, 0)" stroke-width="1" fill="none"/></g><g><path d="M244.11016828886238 79.34641683510344 M245.63749980955205 78.01077281110156 C254.0911370924498 81.7728352887648, 259.7433393115587 79.29511202970949, 276.3890279306274 80.08677892771784" stroke="rgb(0, 0, 0)" stroke-width="1" fill="none"/></g><g><path d="M277.2918295851149 77.53051260758093 L285.27471381945674 81.74066525511596 L277.1108279114429 84.27846525914019 L275.9208209145228 76.78052704554715" stroke="none" stroke-width="0" fill="rgb(0, 0, 0)"/><path d="M277.3902644289233 78.18626946750518 M275.65909904520277 77.33052234350836 C279.0596705321969 78.22618599320054, 281.1646138172484 78.68845898149128, 284.7949079551263 79.8386766919295 M284.52077921743836 79.41019476607133 C281.7630402563252 81.08395253699798, 278.4637229361525 81.3708397990025, 275.4750079294522 82.28501837919138 M276.52419640776856 82.86662709097226 C276.4284153120066 80.63681323224164, 276.1419914417961 78.59830769719488, 275.7686326171659 77.07885908342314" stroke="rgb(0, 0, 0)" stroke-width="1" fill="none"/></g><g><path d="M366.18117574594226 79.92672184264909 M365.7541067039402 79.5223736019448 C378.54240437839394 82.04259992060264, 389.3561587269601 81.37984787237406, 396.6809644121548 81.77234355018521" stroke="rgb(0, 0, 0)" stroke-width="1" fill="none"/></g><g><path d="M396.35103582779925 77.05702129284333 L405.77704662906973 81.77561116916131 L395.49426287362246 83.45986280485292 L394.2840723113784 76.73578447166828" stroke="none" stroke-width="0" fill="rgb(0, 0, 0)"/><path d="M395.93121291442304 75.08273175688082 M396.5911110849441 77.1742648306865 C396.9565019537982 77.42224933188855, 400.1719426980752 78.74344260140444, 404.3239541440487 80.68767113535972 M395.63313596629047 77.04205946852291 C398.7079684053983 77.6892526771697, 400.91624464286656 79.03669284953455, 404.32194397292335 79.8867937851712 M404.18427436066975 80.78125965165772 C402.1825914895156 80.04482645259623, 400.2775537933102 82.02178644016436, 395.77620916620424 83.2819431408254 M404.1780935574542 79.83256872268687 C402.0095274639087 81.21856490300755, 399.7247832584989 81.86506804623835, 396.3407831122767 82.58672013576802 M395.58541575919327 82.59744666625981 C396.13175093468703 80.86682616276269, 396.14288065790424 79.32001084500622, 395.59461718007407 77.21935156070468 M396.2373998703573 83.19310444348854 C395.8872971701081 80.6369995259895, 395.8842177882887 78.18267296582262, 395.70033661028094 76.78001361310965" stroke="rgb(0, 0, 0)" stroke-width="1" fill="none"/></g><g><path d="M486.07158762867607 81.80773014436777 M485.9624683489204 80.5415230866673 C493.5013729999286 80.43721007895556, 500.95312585343913 80.82986628846537, 514.1965714432608 79.15300121115706" stroke="rgb(0, 0, 0)" stroke-width="1" fill="none"/></g><g><path d="M515.8164498561362 77.62111507411569 L522.439270406245 80.51669459566264 L516.5824690317673 81.60056931194464 L515.1707605305522 78.50095345928042" stroke="none" stroke-width="0" fill="rgb(0, 0, 0)"/><path d="M516.9449119988933 76.95412022136267 M516.0690665453003 77.09238443421427 C517.9736749780725 77.57779377811934, 520.9560263251955 79.10554529217258, 524.1188579400709 79.32560841512392 M524.6704635055072 80.56644212447189 C520.4804236969892 80.62535943129681, 518.857861812817 82.41763469167982, 515.9403863750083 83.83136139554334 M516.0057802961754 83.27673086731458 C516.3981633702936 80.71133801953096, 516.6026070867791 79.41353760612402, 515.4621664703537 76.44491117066893" stroke="rgb(0, 0, 0)" stroke-width="1" fill="none"/></g><g><path d="M606.6927647076003 81.93718814592377 M606.1231786027995 81.39309789632631 C615.8590609966753 79.50610519638668, 624.4750276409796 77.91590247891584, 636.6581902248457 78.53110875759805" stroke="rgb(0, 0, 0)" stroke-width="1" fill="none"/></g><g><path d="M637.356128875641 76.27547330372177 L643.9309210721402 81.81246655022578 L634.3922751274662 82.38828024685503 L636.0197113761701 75.63675019397881" stroke="none" stroke-width="0" fill="rgb(0, 0, 0)"/><path d="M636.9400539801862 75.62173352230035 M636.1072260014323 76.54985448191574 C638.8361423748257 77.78774583661539, 642.9686518063219 79.51337892703742, 644.1451473161586 80.26750747289296 M643.6887635200187 80.08374329136716 C642.6124173914675 81.35192742743533, 639.6376158213379 80.9808151780391, 636.6888319730208 82.48334114641885 M635.7271694884449 82.45670410532513 C636.2740906140513 81.61301659411907, 636.0749028603262 79.61264172134696, 635.6581511835558 76.67165115073958" stroke="rgb(0, 0, 0)" stroke-width="1" fill="none"/></g><g><path d="M723.8856148362928 79.97615641040382 M723.564534582917 79.40870469145445 C732.4644437823796 79.22311385399645, 741.9846786887304 79.96767045679624, 756.9575302070168 81.02668963925025" stroke="rgb(0, 0, 0)" stroke-width="1" fill="none"/></g><g><path d="M757.1981208485262 75.5277687471606 L762.3469858083226 81.13631152974806 L754.1770915199979 83.16918720537578 L757.8369261996628 76.90666295079609" stroke="none" stroke-width="0" fill="rgb(0, 0, 0)"/><path d="M757.3348180558175 76.93523589651058 M756.4730694360088 77.02319180452106 C757.7823258164431 77.23013774675682, 760.742442084597 77.8694885821461, 763.7378733005925 79.16559617143531 M764.8020017745757 80.27816034485313 C761.7581792091538 81.08503480787215, 757.6776907687366 82.89366343203864, 755.9961765670653 82.54895792989561 M755.4073308034557 83.1741700132959 C756.0974070057459 81.19152859499351, 756.3830825469821 78.37242732967532, 756.4286982865583 76.73348565894318" stroke="rgb(0, 0, 0)" stroke-width="1" fill="none"/></g><g><path d="M844.9776089204008 78.12853341518617 M844.119526093576 79.32716618663375 C854.3157495098664 81.6948493792252, 865.9187925286485 78.84750467228204, 875.5465652705228 81.71319011453204" stroke="rgb(0, 0, 0)" stroke-width="1" fill="none"/></g><g><path d="M877.1307558061096 78.36398374427063 L882.8669048108759 80.83778158888602 L877.8759772683637 81.58191175886964 L877.503279322961 78.5703974394907" stroke="none" stroke-width="0" fill="rgb(0, 0, 0)"/><path d="M875.6652862692777 75.02190664308557 M875.6499934698131 77.20129249579647 C879.5189853063043 77.63581209205299, 880.8998322020714 78.40608661202481, 884.2422238833955 80.15709745418522 M876.1030040523915 76.7343608225018 C878.6327555795264 77.72550052365402, 881.100615618532 79.22116501270776, 883.5855084890168 79.62009020490284 M884.3374547512236 79.20688769016465 C881.0794052833807 80.61222957410376, 877.6656231219803 82.53396760127492, 875.4065523059705 82.50375536448325 M883.6304297035945 80.32874489632275 C881.1428392091827 80.6102538919801, 879.1866081341814 81.60526875677509, 875.7455545090758 83.16157923125787 M875.7417122489203 83.28898765296671 C875.6927999121923 81.41315939671868, 876.1838135913974 79.99165410640853, 876.4348081833343 77.4222859855108 M875.7558945634875 82.98911353665186 C876.0907776113829 81.42057160802227, 876.0336257749731 80.13236995540109, 876.1207320329399 76.73527623491952" stroke="rgb(0, 0, 0)" stroke-width="1" fill="none"/></g><g><path d="M100.73141026803921 105.70169871001605 L90.7787396299766 102.07391473401769 L82.38666278949582 96.7771507549851 L76.29846784133113 89.22198666478074 L76.50889869536154 79.0560302668943 L76.53465491251794 70.31249292659139 L83.5954243933686 61.16868526346991 L89.00836815932766 55.17766805702931 L98.47941362198817 56.10264484143882 L108.96398595286838 58.931163930778766 L116.6881078298524 62.125110647973315 L124.38815453352554 71.65834570341448 L124.33000533905927 79.89678237706606 L124.95526504438163 90.5188644767724 L116.66211139062855 96.10316865296184 L109.63180343962759 102.42599267691115 L99.452733748232 106.95837877815374" stroke="none" stroke-width="0" fill="rgb(250, 250, 250)"/><path d="M100.87390903804015 105.87489079921316 M100 105 C87.34804836537782 106.6707038020102, 76.40924118661736 92.74805994459723, 75.32331685094087 81.79654732665031 M75 80 C75.64659186724685 66.38416205686107, 87.01701508037583 55.96548105271869, 99.82160357199103 55.757899746876966 M100 55 C113.37707021014711 54.43501732912619, 124.45857304720823 66.90495696612214, 123.04083444885761 79.14762924266618 M125 80 C123.4317147412386 94.22632791737877, 113.62616983429629 103.15774340253127, 99.42849715678798 103.72016708568016 M100 105 C100 105, 100 105, 100 105" stroke="rgb(0, 128, 0)" stroke-width="1" fill="none"/></g><g stroke-linecap="square"><path d="M169.23476501220603 53.208773471031556 L240.72615030260113 56.61310910774339 L246.44604743812505 59.39836837089929 L245.82745395338287 101.85869292286134 L237.27174063189696 106.94260468389031 L167.23016623624198 104.9381369969291 L165.07466232620405 100.27739562625837 L166.3488671841651 60.63651391712238 L168.8312400323345 55.53578574734992 L171.87801954028274 53.8592675552785" stroke="none" stroke-width="0" fill="rgb(250, 250, 250)"/><path d="M169.7049086761125 56.25485410480583 M169.04452937313198 54.708126726943625 C198.23875768857823 55.59722741398993, 225.70579905043238 53.834139818944806, 237.7157910880481 56.1838798089856 M239 55 C243.00942339628955 56.24566703824088, 246.80973985963928 59.90350687835847, 243.7821873799258 60.96689439595552 M245.73148609036372 60.7371621492946 C246.4769534299539 72.84119259390557, 245.56182528940738 83.08730301316987, 243.56587301890775 97.1431413880321 M245 99 C244.21086832621705 103.78171635522227, 242.30131283377716 106.2987069307665, 239.74914384435095 103.18877395018579 M238.1737577809518 104.82135381053075 C225.7809870304453 105.74391858381813, 208.9808490049222 107.41763847885072, 170.82232617386174 106.89187931995197 M171 105 C169.11873918176246 105.03711900437696, 163.61637234454682 101.25961987988542, 163.86098705731544 98.63221485628105 M165.49101559692696 99.72096146797229 C164.45363545358583 88.75569865796182, 164.9693070509444 82.00708668127383, 165.3541814900467 60.051637783595254 M165 61 C164.79392974360545 56.50976105311832, 170.2017273577706 53.15768193883113, 170.3207395102542 54.99671764673817 M171 55 C171 55, 171 55, 171 55" stroke="rgb(0, 0, 139)" stroke-width="1" fill="none"/></g><g stroke-linecap="square"><path d="M291.7317566472874 43.06077734456438 L360.775278264021 43.39599891593107 L362.51341778142995 45.892010138358536 L365.75059168194025 52.88130256884288 L363.6157805603445 107.90298361847557 L364.7458150589734 111.60334260872963 L358.7445881812623 114.24325476426499 L290.58332024121756 116.88414226212203 L288.0583405038958 112.68791954473589 L285.1668735489027 109.52610218626509 L285.02403815565333 50.66051163227341 L288.08757237504017 45.92579746043677 L290.8825318921632 43.07060779496735" stroke="none" stroke-width="0" fill="rgb(250, 250, 250)"/><path d="M290.62736467430074 43.888520398176134 M290.6664188966217 44.47221168786349 C317.5777271839923 43.71551008971279, 345.84776658893105 45.60509044291933, 360.50718239059336 45.25385802934443 M359 45 C360.4049854791929 44.43276164396992, 366.1701972866543 47.736336324935124, 363.4113604614475 51.68942220220708 M364.499529608469 51.41787671240026 C364.0935276352458 71.35736293313323, 366.88964079133024 89.45853300939585, 365.69737384232127 108.62108960473839 M365 109 C365.4357520248758 112.21312517628095, 361.52745732608906 116.06477297912785, 357.8964075786131 115.40219439447496 M358.954704846228 114.32789362899243 C331.45594331801055 116.01682084670625, 305.1503974185879 113.80888060387683, 291.24295507901513 113.59178335234917 M291 115 C287.9933796781439 115.98510161347313, 285.9103105495316 113.08865097764361, 286.9228936755367 110.95409161551513 M283.5815401279315 108.07056403591244 C282.88486427161047 91.89667960807454, 284.9486964421474 75.02983946510957, 284.383712840289 49.50768450690978 M285 51 C286.5146276568673 49.6820439889934, 288.58278372553264 43.504756165490335, 289.9780475020766 45.82886870934145 M291 45 C291 45, 291 45, 291 45" stroke="rgb(0, 0, 139)" stroke-width="1" fill="none"/></g><g stroke-linecap="square"><path d="M411.7167117813736 45.53499001894719 L479.24442553572186 43.073929863303405 L481.735528937659 45.211774580543526 L483.1085606059028 52.204316507845874 L484.81305396539653 108.0811791348443 L483.0089522789182 115.16533262492497 L480.9033687166488 114.82549450925805 L409.982614852308 113.1817866593305 L404.94487610882544 111.29143175215518 L403.0399580535076 109.39711644089225 L405.48309803951764 49.87989771332248 L405.65007588945065 46.5085715544539 L411.2240284779125 44.023701039778636" stroke="none" stroke-width="0" fill="rgb(250, 250, 250)"/><path d="M411.7316829580935 44.88121394663214 M412.1179435833866 44.00713639153075 C427.93448129704325 45.15385188479217, 444.65104904387795 47.022557371196804, 480.34129029212903 46.24970769606722 M479 45 C480.57020366272104 45.284053753989255, 486.5395810023163 49.2573023824533, 483.74422655544106 50.62021948382246 M485.42138054293616 52.649445893675264 C485.6443027898305 65.49742319415377, 486.5820080204374 83.90260796598436, 486.39285514880515 107.697088787649 M485 109 C485.68787572678883 113.15994475049334, 482.8977777654268 115.63107053146115, 478.23419272018447 113.34690449447609 M479.5666414623965 114.13991001979701 C453.26934391785124 114.7092740194422, 423.0734331685345 114.86886571395814, 412.6397216571293 113.50741946577426 M411 115 C408.7202171754144 115.27341811135359, 404.789294305895 111.83577013476591, 405.19446099732033 107.08744080658256 M403.65878263683203 108.85962017862695 C406.38079055731885 98.20880895734877, 405.3190245434117 83.18175396590487, 405.02857907500606 49.58722877217749 M405 51 C406.8736708950136 48.18579680301023, 407.64545070558364 44.84811665746209, 410.6055878447422 43.923491225218164 M411 45 C411 45, 411 45, 411 45" stroke="rgb(0, 0, 139)" stroke-width="1" fill="none"/></g><g stroke-linecap="square"><path d="M529.16195478597 54.18130571267773 L601.5183539359015 57.01627898908638 L604.516436680328 60.59054701392216 L606.375652597267 101.07283885220063 L598.5979346980508 105.68240100676462 L527.9910861946701 103.68671049539506 L525.8606785167267 100.96610022525716 L526.7473643516803 62.465384393527245 L527.8091458926862 56.84052683184641 L529.7645382637569 56.19913079231155" stroke="none" stroke-width="0" fill="rgb(250, 250, 250)"/><path d="M529.0158829639329 54.95852551029143 M532.7204834685654 54.165847947976275 C557.9693615698536 53.211398760525476, 586.9306221557317 55.545783245997185, 600.0622701127868 55.048129824267505 M599 55 C602.0979301081491 56.16087833338329, 606.0541336444279 57.49277432679563, 604.7714220019293 62.65501075169409 M603.912022257679 60.233798601468656 C603.3661821677357 70.75585839213856, 605.8847766555749 83.6726564478302, 604.0854832595029 97.22291070553398 M605 99 C605.8652342469587 102.61551781803996, 599.9662941953932 105.92789326952753, 597.6922447224005 103.5049071355743 M600.3140418264302 106.26821346270269 C576.5014239833765 105.31491059021975, 550.645359816005 104.82196624143059, 529.362541169146 105.00828118971755 M531 105 C528.5509605449009 106.44674237457475, 525.7500452320189 102.2661673456281, 523.4480803219585 100.0283691249385 M525.0738419144722 100.60717189979844 C523.8372372589428 84.55349284585313, 523.2437656692122 71.83792912929046, 524.7714330934346 61.143199887896415 M525 61 C523.1313733094246 58.709523928036376, 527.6627126622404 54.398171228304676, 530.1760676860707 55.24010052755469 M531 55 C531 55, 531 55, 531 55" stroke="rgb(0, 0, 139)" stroke-width="1" fill="none"/></g><g stroke-linecap="square"><path d="M650.5367955812555 46.280711006681166 L720.9769088274917 44.94805160885474 L722.6157585322184 45.937831636862185 L726.0218633021663 49.81468958299099 L725.4739352308245 109.95577005922793 L722.7429732781645 112.89171940589841 L720.4658502848957 115.44211538148535 L650.638349609926 115.81615364675602 L646.2497549586041 112.80433282580607 L646.758679799829 108.52215427699458 L643.2113478712434 49.96685376958772 L645.4293849814073 47.43584162236526 L650.3915843342041 45.70814915002036" stroke="none" stroke-width="0" fill="rgb(250, 250, 250)"/><path d="M651.7844168067568 44.61619113395913 M649.6561733142987 44.64141576037652 C670.000933550608 44.27365825448024, 690.7519895642649 44.955415201782635, 720.9161773492762 43.55277372114275 M651.6436645075396 45.772063878842516 C670.6228349877567 44.15025585772137, 689.7636818224554 45.35330385532214, 719.4997894001416 45.83146372286478 M719 45 C722.4482536916182 43.671311495994544, 724.419811235194 47.0373019098426, 725.7133703086552 51.46079151838071 M720.7953622461534 46.16840414411223 C724.0569800116697 45.835227456267255, 727.2200661005227 49.37467957957236, 723.5678838433483 52.40710656025515 M724.7070941723284 51.993894497947664 C726.3445957229854 75.61872187499462, 727.0085794614398 97.77238633909285, 724.8880206190116 108.84247813571663 M725.5393879900214 50.065094852688595 C726.0784388740152 63.467259896117895, 726.1186323339781 74.62420429047752, 724.4313555622679 109.35777688830338 M725 109 C725.1262057379225 110.7381689290757, 722.1365440636102 114.96698616836483, 719.1954107703413 115.3913835143195 M723.5912293286905 110.98058111770891 C722.7588178446746 113.72032083075473, 721.1394201370094 117.14797923419378, 721.131109859779 113.27573269898156 M719.2879466517303 113.69358701495207 C700.2388607534572 114.88665865327253, 681.6470934938462 114.45344306836664, 651.5063747881882 115.97810561031245 M719.5027185215472 114.58972401520276 C694.6795563190173 113.81795485193112, 670.2277010202646 114.7737786723011, 650.8899144691452 115.36132748611033 M651 115 C648.4788807517905 113.26604413868873, 643.7239263316991 110.92217399243243, 646.246088535356 108.45128595341515 M650.2713156641798 115.05668764914493 C649.3907265636749 114.04120322326307, 645.5377612557387 110.92644574919916, 646.9245855141196 109.66598478503852 M644.5485089963578 109.82970609245086 C645.4463404045041 88.49059975786938, 643.2892460738007 71.62755029872609, 646.1152034056967 51.33598601291101 M645.5734899422953 109.13977655675363 C643.6606728990532 93.70072802352819, 644.6178028626041 76.32648609117558, 645.7614438933664 50.89730592291809 M645 51 C643.0264955179341 50.260076221898295, 647.09734688507 45.41504017291332, 649.6570571542353 43.177718318127575 M645.5753412477576 52.46043486000953 C646.956674813437 46.829873285119085, 647.4795229689774 42.91940455757558, 649.4326489761426 44.413204535347575 M651 45 C651 45, 651 45, 651 45 M651 45 C651 45, 651 45, 651 45" stroke="rgb(0, 0, 139)" stroke-width="1" fill="none"/></g><g stroke-linecap="square"><path d="M770.2757517717906 44.87418620606897 L838.9038844222681 46.54398866925585 L842.0202455851897 48.021126497082726 L844.4201739634348 52.49355424312485 L843.4001181664175 107.0666893763204 L844.4394595017455 114.50153802042738 L840.2722086205438 113.59627826479456 L769.8529886041476 115.73821008112955 L765.3748151495981 114.06388563692911 L763.5695160634988 110.4187823480603 L766.6722960876741 52.08345792556763 L765.6773922080083 47.56638798345367 L770.8293118373952 44.78814823153047" stroke="none" stroke-width="0" fill="rgb(250, 250, 250)"/><path d="M769.1934514250894 46.49128371734358 M771.7145980666957 44.44535254042527 C795.5118559339858 46.63349540166768, 820.0307045774954 43.81953087200009, 840.0381515611879 43.40285627451325 M839 45 C843.1456012890403 43.095142373551255, 846.6534592415661 48.43196383172007, 845.5341346144439 51.87407305108839 M845.0859071448446 51.66133886246819 C847.34190067749 69.7787949062147, 845.5591499421328 83.60760898288947, 843.4611409797077 109.20701965981695 M845 109 C846.5009643899609 110.43552298850616, 841.3409219499248 113.94085279497362, 840.9875933817268 114.62218002575175 M840.8587300833665 114.45180371145172 C817.1851242656993 114.10004998744924, 795.590235437228 114.26665842188048, 771.6473156346965 113.92691801997299 M771 115 C766.8672601499328 116.49348050415934, 764.9500140711652 112.46292956726609, 765.9424634844626 107.8176010610777 M766.6263251730556 109.57843882304007 C766.4543294413294 86.15781522574716, 765.5315656523511 62.134626826080435, 764.3618019570816 52.526908852539364 M765 51 C765.1481560054087 48.12557288599688, 767.0202318423899 43.29138722343493, 772.4946543745986 46.991145971218586 M771 45 C771 45, 771 45, 771 45" stroke="rgb(0, 0, 139)" stroke-width="1" fill="none"/></g><g><path d="M911.8287861673011 106.36218290838895 L899.2909655135468 104.98101548097392 L892.2113966987885 97.75255048848469 L886.7424232453815 87.76905796358494 L885.0472912503785 81.10894550291738 L887.2011988794796 70.2424491583825 L893.9978901592631 63.98032414320602 L899.4677580942661 56.09545029333737 L908.5984483412286 53.125702094504 L920.8740840895704 57.86394708917451 L928.6601655797772 61.414005518250896 L933.1473720763399 71.94908317671411 L936.5721175834444 78.60060413475847 L931.5086250409433 88.82599304802325 L927.0555714422525 96.9121923812373 L919.9339571392294 102.17513308655334 L909.6283543962778 106.97386783096287" stroke="none" stroke-width="0" fill="rgb(250, 250, 250)"/><path d="M910.0842299815367 103.41170472173499 M910 105 C898.010026058881 106.66153797417628, 884.1691304830367 95.55197556960408, 886.0368344139308 80.78095360468002 M885 80 C883.0006078532704 67.02005919905932, 896.3418712047371 53.243802640950776, 911.919420420737 53.8810435188549 M910 55 C924.4164158251992 54.97344218000254, 933.9280652441705 67.46798287361293, 935.5482450237764 81.74369204618384 M935 80 C935.8004076674612 94.18058955549144, 923.7988432363231 105.99966733233643, 909.7714145691373 104.12511964171392 M910 105 C910 105, 910 105, 910 105" stroke="rgb(255, 0, 0)" stroke-width="3" fill="none"/></g><g><path d="M911.7664985170833 101.21474711285299 L901.5417961368586 96.45498029904972 L894.8900426964155 95.27267777851613 L892.3267546911981 88.1207842956449 L891.2606833327636 80.1731125936646 L893.2910240270886 70.80919110688279 L895.3703345898749 66.83215861322087 L902.9296129941687 60.19632337594846 L908.4455405505465 60.070584519057945 L919.5633489404 63.46952790174862 L923.4510055245244 66.90891904176405 L928.350636778931 73.12724161028048 L930.3589447801734 79.01707408045074 L929.6650993662031 87.2178763017939 L922.2715113287998 94.65865646191006 L917.4090259466107 96.43600656415764 L910.5097657920526 99.47641991610354" stroke="none" stroke-width="0" fill="rgb(0, 0, 0)"/><path d="M909.110031676438 98.5977012263637 M909.9999998092651 99.79999980926513 C901.0370162471858 101.61985684548434, 888.909094406326 91.1591745198111, 890.0692739554598 81.38842211301412 M908.8839126622586 100.6435929356557 C897.6075091747215 100.39686245483712, 889.0839866761736 89.40187236253857, 890.4319095405885 79.94937401128675 M890.1999998092651 79.99999980926513 C891.3820105291925 69.96871826513299, 897.3237317864407 61.75339712693763, 910.2182304866944 59.75288046214946 M890.9944254193252 80.72646837190383 C888.5167640954635 66.96153593726896, 900.5849631362439 61.09497792781983, 910.4074001646135 60.150514609390875 M909.9999998092651 60.19999980926514 C920.0504840223996 60.15758697384353, 930.1235279472984 69.19725502026854, 929.6108142321166 81.69428957974847 M911.8452446545504 58.475903774713814 C921.9515831839545 59.44860479450517, 930.4159571862376 69.77526571856252, 929.5028798198828 81.64119333916126 M929.7999998092652 79.99999980926513 C931.0271584726214 92.38611358341858, 921.3070999827207 97.91434550194455, 911.7382829264876 98.28501488719459 M929.857184064145 81.08170264095583 C930.1543267245552 91.06407341522053, 918.6541338774485 101.55000372540056, 908.7885966053851 101.77201697356259 M909.9999998092651 99.79999980926513 C909.9999998092651 99.79999980926513, 909.9999998092651 99.79999980926513, 909.9999998092651 99.79999980926513 M909.9999998092651 99.79999980926513 C909.9999998092651 99.79999980926513, 909.9999998092651 99.79999980926513, 909.9999998092651 99.79999980926513" stroke="rgb(0, 0, 0)" stroke-width="1" fill="none"/></g><g><path d="M25.583025124195892 188.13543394841898 L944.2038767814156 186.49122009490094 L943.9352109399819 314.84515784301544 L25.194628210905456 316.3196255860003" stroke="none" stroke-width="0" fill="rgb(224, 224, 224)"/><path d="M24.733574207158547 187.59602166729294 C232.511095367655 190.48524594335473, 439.7765406126876 189.42103540833855, 944.8134561325489 188.5506013582619 M25.17163381934805 188.0321812658163 C288.6360763682123 187.3343619805015, 551.9758766406737 187.09643397167963, 944.6786488326484 188.13057978409265 M945.1541018274463 189.0564061355445 C946.3647598487221 222.77365373020393, 945.4780457898369 255.80954898182765, 944.853642566179 314.75309984402446 M944.6496718281286 187.63439347380358 C944.8280488027835 220.07249292517045, 942.9746712565573 251.44549130463975, 944.7879143758414 315.1840725734687 M944.3183785128733 316.1455937701878 C604.0769797018235 314.92976485738126, 261.92240959211045 315.06045288243564, 24.493090954930903 315.1996086486067 M944.8912135220704 315.8583704522126 C683.3293314956926 315.6917123812649, 421.4585954885066 315.8165158059826, 25.165929210252955 315.95399556458335 M25.164023837386413 317.39638512845215 C22.646030584499844 286.5645609945673, 24.88993872585899 260.12040460738206, 26.7620009201174 187.22268736822843 M25.232903033240653 316.71192726494945 C25.692852630841017 284.12417327958576, 24.398693925792 252.09238760074666, 25.34806479214542 187.91940354982074" stroke="rgb(0, 0, 0)" stroke-width="1" fill="none"/></g><g><path d="M46.20270105782518 186.52772887041093 L945.7162721658007 190.24371975567468 L945.7492084402606 315.1734214062808 L43.89051284791647 316.5393022598047" stroke="none" stroke-width="0" fill="rgb(196, 215, 237)"/><path d="M45.56277348555047 188.95759706744 C236.34572835857654 186.38573593742225, 427.1205329737796 186.04918088076298, 945.6770905627576 188.7270611345721 M946.7498430738611 189.79392904674813 C946.6608719533407 238.42674546182218, 944.6172249112102 285.8743853966962, 943.9777231710706 315.55504287398696 M944.4476704801752 316.19477310653525 C753.3317470193716 318.33048497359414, 561.3601325035548 318.6069424352637, 44.761694203527064 315.49255398522706 M46.54846035514001 315.955580177624 C44.26001555574155 272.43827992179047, 45.30892753321467 230.42047917333548, 43.954953279645544 186.79682968853552" stroke="rgb(196, 215, 237)" stroke-width="1" fill="none"/></g><g><path d="M44.27667443416499 187.49036312794883 L63.01183276240971 186.78159061712685 L64.76465817374945 316.1785244789205 L43.56694735712844 314.390790734373" stroke="none" stroke-width="0" fill="rgb(224, 224, 224)"/><path d="M45.95018858741626 189.4480488716967 C52.34098870815307 188.57115191650828, 60.6078677943926 186.72921560166859, 63.49024435412565 190.2397269120853 M64.00360474660093 187.28381323050843 C66.17014324741533 218.96058820842137, 67.15995178146869 246.45463909073854, 65.15816562590173 315.1789525878938 M66.93485400631351 314.6986073824158 C56.750914334383246 316.1767883551521, 50.012464863002414 314.6883736731569, 43.969096528960975 313.79479383420454 M45.30687842468847 315.3388908539161 C44.25251689594157 269.2268335636177, 43.76937762728003 226.7973516568671, 43.45289037292024 186.77152907986115" stroke="rgb(224, 224, 224)" stroke-width="1" fill="none"/></g><g><path d="M45.58448949650347 188.35365319323722 C340.9606831424454 186.05683643553795, 636.363714340869 185.71484688401168, 944.4478762109702 188.7083488567654 M44.605112522700075 188.58830480856685 C326.0718438659714 185.872297349347, 607.5789533396501 186.24652946539914, 944.6984076327005 188.20056581214644 M946.3607907714799 190.16304251746902 C944.8216591976019 228.07011047313074, 945.0232497472077 264.62727687082696, 943.238486121517 317.0399907538712 M945.5536520925378 188.9056502634166 C944.0643232343505 232.04983755555816, 944.1199557175999 275.6503036945477, 945.820147392744 315.2979057008333 M945.7035005367487 315.61353869810335 C638.6235066178282 315.0288055444918, 330.46314537398257 314.9623462497391, 45.14823686746834 315.95021622429334 M944.6185993906219 315.79205113998825 C704.6712769624581 317.63581599569545, 464.85406195713057 317.7083073984192, 45.07136152934373 315.5407018667102 M43.55207047040551 314.70752194123764 C43.216513908732196 279.8131250981525, 43.21423061026548 242.44861289989282, 46.216123908433204 186.36482125820712 M45.71521215831533 315.49623120210555 C43.18364568442436 265.17515786334576, 43.373958210644915 214.60760013688136, 44.78075110027433 189.2067826993601" stroke="rgb(0, 0, 0)" stroke-width="1" fill="none"/></g><g class="text-container" transform="matrix(0 -1 1 0 48.1953 252.048)"><text font-family="'Arial'" font-size="12px" font-style="normal" font-weight="normal" text-anchor="middle" fill="rgb(0,0,0)" fill-opacity="1" dy="0.93359375em" style="font-style: normal;font-weight: 400;font-size: 12px;font-family: Comic Sans MS, cursive;">Enterprise</text></g><g><path d="M66.70458143225207 188.29710711181835 L943.9367745719775 190.079520541994 L944.5071786450769 316.9033385594315 L64.50977935389065 317.21058914957695" stroke="none" stroke-width="0" fill="rgba(255, 255, 255, 0)"/><path d="M65.32743397211678 187.99957851139544 C378.83893052613166 185.81690063358235, 692.640230524571 185.151227582409, 944.7042112504522 187.7196152332554 M945.5521765135045 186.69118337807043 C945.2338396638808 214.57703250757797, 943.6960119567344 243.49918116634242, 944.9167589862527 316.5509444958225 M945.3438965775836 315.17530302614836 C644.4535241320178 313.9539334389691, 344.6219086690859 313.14194631877564, 64.68214366288302 315.99895067684156 M65.53241449523424 314.3867166800424 C66.07163713421848 288.7016940543084, 65.86053488399338 257.5355204449678, 66.59580429291509 187.71912656615243" stroke="rgb(0, 0, 0)" stroke-width="1" fill="none"/></g><g><path d="M126.3684462523214 253.208111803517 M125.52410727229667 251.7304856060021 C130.5259654696391 254.3240224571505, 140.7394003660469 253.62715522712773, 157.78024884409015 252.6409283645174 M125.83695262699804 253.41461830795177 C133.17775657380338 254.04179042073574, 144.00014830603854 254.5619798618599, 156.15155377515052 253.80251454453392" stroke="rgb(0, 0, 0)" stroke-width="1" fill="none"/></g><g><path d="M155.8545828495468 251.6285874714277 L163.42724732375632 252.6784567200759 L156.8775219313503 255.6949146860242 L154.8761590677997 250.30561798979926" stroke="none" stroke-width="0" fill="rgb(0, 0, 0)"/><path d="M155.48225403536244 249.8185737096465 M156.36576310017998 250.69172210563366 C159.50712983033242 251.60925237135177, 162.11109797905476 253.47755084242158, 163.64881992262477 253.57132579612835 M163.85258833691051 253.52698475790274 C161.36089418532205 255.14339255526946, 160.28047505073232 255.76738214607286, 155.37532872484982 257.5088087008137 M156.3530919916016 256.8820229875774 C155.40498515868865 254.51868014777097, 155.46223438097877 252.48185584471906, 156.16017811927173 250.4166785409954" stroke="rgb(0, 0, 0)" stroke-width="1" fill="none"/></g><g><path d="M243.39541660567568 251.8331135824794 M246.20802991101095 252.02712079592692 C254.48674367188735 252.4953617253156, 259.60138290687945 252.62580018979907, 275.68793841017794 254.08876721134118" stroke="rgb(0, 0, 0)" stroke-width="1" fill="none"/></g><g><path d="M277.8737700134328 251.278208578385 L285.4201591281393 254.46256296097513 L274.0365736329063 254.87675220671449 L277.2657231590957 251.7551594252703" stroke="none" stroke-width="0" fill="rgb(0, 0, 0)"/><path d="M277.80442947841806 249.48771191034737 M275.9560553083706 249.99558971335404 C278.5512986510378 251.95867715371293, 282.85771840526115 252.32052849714864, 283.55031322498195 253.23343620291166 M284.4482412804057 253.87539474022566 C281.5832862931718 254.89039295659677, 279.34402475412054 255.67314535513466, 275.9153322336283 256.77095364135886 M276.0501235433987 257.2442944518508 C276.44505646148934 254.93720296718948, 275.7425023106191 253.41089614664924, 275.8389896270988 250.93324094278734" stroke="rgb(0, 0, 0)" stroke-width="1" fill="none"/></g><g><path d="M366.816841699869 254.75383511723896 M365.0286690358012 254.0666773243729 C372.1580466135606 254.21584550439334, 380.21936224176744 252.9102191429186, 397.00194412456875 255.35090111877827" stroke="rgb(0, 0, 0)" stroke-width="1" fill="none"/></g><g><path d="M395.5013714139035 250.66227234054233 L402.75270517893375 252.2685062463827 L394.9669609952739 258.5671205121196 L394.5608181576419 249.84182718670735" stroke="none" stroke-width="0" fill="rgb(0, 0, 0)"/><path d="M396.5948723604647 249.53859416158957 M395.2170393303785 250.72304928415423 C398.78277164348873 251.8961900832522, 399.6301824504579 251.7236902038553, 404.52170189122813 253.78742120906415 M403.4011897918753 252.90380855866434 C401.66047567652083 254.9268475560302, 398.51580370255994 255.62669052456116, 396.61400634742813 256.09748995033266 M395.77602582983536 257.1717454963811 C395.71834083915513 255.72098653127023, 395.7680106390887 254.15732362892763, 396.0425037027137 251.0866332399318" stroke="rgb(0, 0, 0)" stroke-width="1" fill="none"/></g><g><path d="M485.06790638006237 253.29002267455488 M485.9963062560218 254.31980069028737 C491.29491254233795 255.11048381705837, 500.0337608473453 252.99636006395002, 515.8733314930319 254.9107711179076" stroke="rgb(0, 0, 0)" stroke-width="1" fill="none"/></g><g><path d="M514.6677148840228 249.23267197111 L524.9882758666723 255.20516503224607 L514.5047780311137 254.799527634756 L514.375529402652 250.307016599364" stroke="none" stroke-width="0" fill="rgb(0, 0, 0)"/><path d="M517.2857607293284 251.45450358437034 M515.3859114241089 250.26981079288865 C518.4051630612863 252.41772726845005, 521.5809988174951 252.64493965005673, 524.699622386707 253.57610006389763 M523.9166413269525 253.44663493357552 C522.6962743302862 253.5347960060574, 520.3731794639224 254.67901370553994, 516.0212593928155 257.47640070371466 M516.2353722152685 257.27852445132254 C515.7540960232848 255.30931729720473, 516.2250929896975 253.43334268554023, 515.7320846172684 250.15701624279822" stroke="rgb(0, 0, 0)" stroke-width="1" fill="none"/></g><g><path d="M604.0819882975142 252.62899751888412 M605.1852676961246 252.97825983483304 C613.7177254462744 253.7322524629951, 621.345977898794 253.9863061965679, 636.1159029260618 255.2260614711002" stroke="rgb(0, 0, 0)" stroke-width="1" fill="none"/></g><g><path d="M635.7411602457145 252.45155711021815 L643.5985664864919 255.64385960018254 L637.8343393383946 256.95065617860575 L634.254136285677 251.2011013036026" stroke="none" stroke-width="0" fill="rgb(0, 0, 0)"/><path d="M636.8900533744802 250.0608632340984 M636.6689449032696 250.79920038181262 C637.4694849011426 252.33637314072743, 640.7416402126931 253.27361130000466, 644.0132336803692 253.3253519843129 M643.6931044651825 253.4580867913631 C640.639549562975 255.72461598743473, 637.5027965614127 256.41494364486704, 636.3317985113239 256.6959668583863 M635.689080853526 257.09398139336434 C636.0109134255811 254.02575060024225, 636.3242777009161 251.95447926812517, 636.210883158463 250.3716468569734" stroke="rgb(0, 0, 0)" stroke-width="1" fill="none"/></g><g><path d="M725.5375180063335 254.60560984554937 M724.6131993719046 252.68504941035576 C733.2755362558793 254.05953623769585, 745.1975590699561 252.75485516767506, 754.2616814139021 254.83667822520903" stroke="rgb(0, 0, 0)" stroke-width="1" fill="none"/></g><g><path d="M755.0880096860084 249.08306818421244 L763.3752255652245 252.21703115400666 L756.2781657400919 257.5985752220279 L757.7824739591558 251.70603894341176" stroke="none" stroke-width="0" fill="rgb(0, 0, 0)"/><path d="M756.8292693974097 249.32834824505562 M756.764320755498 250.49589995767602 C758.458745262375 252.14938291773356, 762.6872142501657 253.44696331606187, 763.6116145896495 253.07215382803113 M764.7697660694473 254.34274023476002 C762.7098163923644 253.78967941834398, 760.7347659264069 254.7949950675407, 756.4519239116844 257.4403290814298 M755.4752491234326 257.0591960024715 C756.5507997682473 254.83527511308864, 756.5665288042562 253.76280366389932, 756.1365022609785 250.83936742116435" stroke="rgb(0, 0, 0)" stroke-width="1" fill="none"/></g><g><path d="M843.4163595072866 252.39007891434395 M843.0424677197192 255.6076992257406 C854.7876980251533 253.7720732800576, 864.0032471460854 254.68959298322665, 877.397803858216 253.98978854265263" stroke="rgb(0, 0, 0)" stroke-width="1" fill="none"/></g><g><path d="M875.7814925234087 250.3986216761467 L885.4189933579121 252.18237527653116 L876.6892044170409 256.36743490726576 L876.060996187864 252.28548909843585" stroke="none" stroke-width="0" fill="rgb(0, 0, 0)"/><path d="M876.246514766703 248.82615347602828 M875.3493601849315 251.29146586560404 C878.8448031178964 251.43580938656598, 881.3445156843325 252.51520630084534, 884.3021607371282 253.88617318606174 M876.0120530670312 251.0267664629087 C877.5316503174571 251.44946107060383, 879.2758443090494 251.5626047065565, 884.143248546232 253.8649403061358 M884.0163001571876 253.17218550303343 C882.3098481424862 255.3432651676727, 879.5975938794983 255.3706097811529, 876.1290860953674 256.1557951330113 M884.0018897820777 253.71328199363953 C880.835418948278 255.12291168174485, 878.2882774340701 256.2782203648977, 876.1982403060053 256.65873786745135 M875.4564599168234 256.2023953436815 C875.8499930330205 255.89918238813448, 875.535188979954 254.4878317451502, 876.4842617947248 250.7105964431295 M876.1363983989828 256.55087174851343 C875.8821986130257 254.63062760657678, 876.1152830476019 252.3796730019388, 876.268113057781 250.7165112970904" stroke="rgb(0, 0, 0)" stroke-width="1" fill="none"/></g><g><path d="M101.86724158214832 277.97060527618123 L90.07178369236003 275.28582776754195 L82.02231716340857 270.6805519445269 L75.19176294392939 262.25086493950073 L74.98790991951245 252.8780498585563 L77.89700193003569 244.96033803517358 L82.37773454727368 236.8287352555326 L91.03510285808974 229.63674978238004 L101.9240505539388 228.03709439283728 L109.49216285925392 230.05328240109733 L116.38888921776216 236.61564069230633 L122.49227904872146 245.67315129813468 L125.40949591294068 253.66738941765308 L122.82121788943566 264.36482342945817 L117.2821118562255 272.7172678917697 L110.76149507533279 277.0821436260064 L98.16120021823014 277.5206120850635" stroke="none" stroke-width="0" fill="rgb(250, 250, 250)"/><path d="M99.8972588814141 279.920261159486 M100 278.72698974609375 C87.31773508614744 278.0372469390391, 75.20184903017771 267.26660444655, 73.19292103018019 255.38520057899672 M75 253.72698974609375 C74.7177546302754 240.28765897327798, 86.87299011231462 227.4037518935739, 101.67046977766218 226.88259913794778 M100 228.72698974609375 C115.46865262596236 228.8120529808773, 125.0706071472669 239.76535706201545, 124.55586428130589 255.34268078141062 M125 253.72698974609375 C123.15182133131887 266.42317311335654, 113.54657828052041 278.51720244610493, 100.66735952309014 279.9082918555188 M100 278.72698974609375 C100 278.72698974609375, 100 278.72698974609375, 100 278.72698974609375" stroke="rgb(0, 128, 0)" stroke-width="1" fill="none"/></g><g stroke-linecap="square"><path d="M172.18519408033055 230.68191306058594 L242.05778064735824 230.20948138605758 L245.364367727931 232.9816948102277 L245.29105128872837 276.06596498542257 L240.07020458989578 279.36129745258347 L167.3572621584825 276.99073423794607 L165.67801842747528 273.8732840242734 L164.94801622364483 234.62096681589992 L166.67115394388242 229.99237282977364 L171.0926274060464 227.77184275962426" stroke="none" stroke-width="0" fill="rgb(250, 250, 250)"/><path d="M172.2912064000268 226.90566377914234 M170.64782376684283 230.5454199753688 C192.48778753019107 228.82121355359575, 216.55366938335897 231.30346356400148, 239.782911238694 229.84021021764988 M239 228.72698974609375 C243.15147803612342 229.99988601969272, 243.70685066623346 230.4539920355669, 243.6453692250195 235.03368687223792 M243.39847182619908 236.3654738394549 C243.98448400998677 243.244175546695, 245.33096289107112 250.3997352765932, 244.93417348857568 273.930608107719 M245 272.72698974609375 C244.63955428947918 276.1103147440431, 240.65824480863475 279.89026281275204, 238.68090979386767 278.9428435771957 M237.37199584763988 278.3507800190919 C218.554518098312 280.3097868828428, 196.10730928503273 280.07114717819684, 170.1466263890337 278.36546228907747 M171 278.72698974609375 C165.75087535366862 279.56532782837434, 166.89027990679782 277.19108215840686, 166.76102772548862 274.0283371417398 M163.13161003974457 271.53755787100357 C163.92817222467903 259.6000852631253, 165.57985105585124 240.65095677815413, 165.55026963530443 235.02199230658377 M165 234.72698974609375 C165.56846511508763 233.65761340041274, 167.64631151832177 230.67739358336178, 172.96383514343816 229.11810587025025 M171 228.72698974609375 C171 228.72698974609375, 171 228.72698974609375, 171 228.72698974609375" stroke="rgb(0, 0, 139)" stroke-width="1" fill="none"/></g><g stroke-linecap="square"><path d="M290.53111874960234 228.36276318642317 L362.16186473060094 231.14596536998027 L364.8192292273776 235.64238940183984 L365.1496739331523 276.5775085294096 L359.5896853956856 279.47757491710564 L289.9667664340215 280.0491896654821 L285.1967671656871 273.2201723669866 L285.71676242136886 233.71634438097448 L288.90645018208903 232.50691014205432 L290.94403860801106 229.94274867284784" stroke="none" stroke-width="0" fill="rgb(250, 250, 250)"/><path d="M290.9245523410963 228.92456542374873 M292.462321355333 229.22889122674079 C312.2359116467322 226.73901312135723, 330.73353193276847 228.20154052441612, 358.72528749583716 227.69357784827145 M359 228.72698974609375 C361.0147483014327 229.7803835028627, 363.0001105958846 231.3015646856304, 363.36866629903386 233.68519978056372 M365.68604868478855 235.10809704135627 C364.5873076578386 247.25584480499415, 362.7721576083631 256.7777018779682, 364.7383166105315 271.1502915372641 M365 272.72698974609375 C363.8041915171469 277.47476659176976, 362.483146642073 276.84137651029056, 358.2473641550395 279.31443879261025 M359.28265808573815 278.5851965227104 C343.485593798887 280.62929574076554, 331.3119817731956 280.8317984382603, 292.1321429224769 278.8489616758127 M291 278.72698974609375 C286.9591765939881 280.60482365598074, 285.26558743725525 276.1230885345178, 284.48994258209484 272.8921457864698 M284.0470543978538 271.1874855292355 C284.8389389589631 263.77420618832315, 284.7892441305244 255.28351196246035, 286.45256996246013 236.6817248137633 M285 234.72698974609375 C284.49770049926053 230.88036181356773, 287.38786487058167 230.0382602864999, 291.1955583941353 227.90954123845367 M291 228.72698974609375 C291 228.72698974609375, 291 228.72698974609375, 291 228.72698974609375" stroke="rgb(0, 0, 139)" stroke-width="1" fill="none"/></g><g stroke-linecap="square"><path d="M412.89049131015616 229.91915990190202 L480.00306430810724 230.90499182047634 L484.6886628293081 232.75091769181643 L486.155890512699 273.0771418224242 L479.1629254358214 278.8285179378209 L410.57672250754433 277.39099635871776 L405.9093456529255 273.39125031023383 L404.0658179903972 233.52192538293585 L406.47284868249915 228.72573367357612 L410.11865286762196 228.08137420068587" stroke="none" stroke-width="0" fill="rgb(250, 250, 250)"/><path d="M409.84384830150276 229.0513095640215 M412.1788087238765 228.17066630847833 C430.45793492497296 227.88745334248887, 448.446311204696 229.49873128276448, 477.99441963319236 229.619779537021 M410.23882354391117 227.7716969295031 C433.54015792912554 229.0819690468203, 457.64812730238 229.52157576274675, 478.8795674999751 229.14244228471213 M479 228.72698974609375 C483.86826881957876 230.16011887913766, 483.5460491668777 231.9051527791679, 483.78126810438744 235.1087337122588 M477.666505573386 230.58754905109862 C482.053532128745 228.34489392385086, 486.07782813175567 229.96127543395104, 486.45446253285803 232.5967700763549 M484.57214357365734 236.21971559715973 C483.518682832477 249.20777006575835, 483.88555270012836 260.6181614672116, 484.97714159900767 273.7066940725953 M484.7493372905599 235.5709577676328 C485.4620177272657 248.52344987870347, 485.67474598919745 263.2763413171607, 485.77975926483015 273.2259789703556 M485 272.72698974609375 C483.5251158410089 276.38172016543297, 481.07575107494506 278.6310056241103, 480.5742457971326 278.62033611945054 M485.09525044110364 273.9519983262655 C482.9984869982591 275.26679633483303, 482.68472730613183 279.57396959926075, 477.62503116255965 277.0528305794107 M480.171028595568 279.7428808411327 C455.802257517349 277.88128835266576, 437.3641511536495 277.8332862074134, 410.7833623365712 278.82011867694683 M479.4955506253093 279.5873714054669 C453.5652659660873 278.04104247654226, 427.3697993283285 277.7859904659136, 410.135673670178 278.9187327899547 M411 278.72698974609375 C408.58208892853634 280.6160795951912, 406.46741562400996 276.7695067148657, 403.6741636450457 273.9702045847588 M410.3873731269049 280.16485181825885 C406.6084316413387 280.9421195142902, 403.50229666916636 277.21213978646927, 406.042289081639 272.6775357114495 M406.5213751446188 272.9648518633474 C404.3906131660937 261.92854015407147, 406.7924380558536 251.42290223812876, 406.48473163353276 233.06217006539885 M404.9489607710468 271.83148969259554 C405.08404433185086 262.3002383479049, 404.0577470957239 249.79257176427166, 404.3646343206538 234.42635450853572 M405 234.72698974609375 C406.8327278614055 231.6460632062468, 408.1809026234056 230.54925722930307, 412.34492570391666 229.8089391191708 M404.0308288388861 233.1897447868579 C405.04890065263504 233.24988249049673, 410.29618711239954 228.42347769573414, 410.9851333800691 227.57918060850642 M411 228.72698974609375 C411 228.72698974609375, 411 228.72698974609375, 411 228.72698974609375 M411 228.72698974609375 C411 228.72698974609375, 411 228.72698974609375, 411 228.72698974609375" stroke="rgb(0, 0, 139)" stroke-width="1" fill="none"/></g><g stroke-linecap="square"><path d="M532.0941485457187 227.7875391151801 L602.6234915468591 231.14722004017082 L605.2259677258187 233.0525443212963 L605.9158930149051 273.15647935957514 L597.6762404203421 279.37004829271007 L529.1187371827459 276.4763621117505 L524.6777309878273 274.557095791615 L524.7679142641886 236.6662757249502 L528.2313607511686 229.1330192390161 L532.772447653787 226.82004591624656" stroke="none" stroke-width="0" fill="rgb(250, 250, 250)"/><path d="M529.1913452011498 230.3882107205803 M532.1385649584895 230.5247613929402 C551.7218633558738 228.9093076067474, 574.852347867764 230.24570346041708, 597.964793342947 228.49929847091246 M599 228.72698974609375 C600.8085100701379 227.51967085612105, 604.8925530091955 230.5179938024136, 606.7196985550815 236.4051387086842 M604.7874940742828 236.5434324231383 C604.939318806643 246.41424220759575, 606.5371840933161 263.3679431981943, 603.5792980962772 274.32920748977375 M605 272.72698974609375 C603.854717001151 275.6126906267403, 603.284258508075 278.43910929430825, 600.5768152018095 279.3159750249604 M598.3183139603061 277.53354701741983 C577.0940940270871 278.65658574004055, 557.1070090872626 276.73308483244574, 531.0008672936922 278.1101397688656 M531 278.72698974609375 C526.3776933771923 278.8931520934294, 525.7322626267613 277.25867052831785, 526.6799388882919 271.04594929405783 M525.0655592397055 270.761073631044 C525.840625821273 259.6472267423492, 523.5857425716221 244.07915753115702, 525.6987805960955 233.45689206794427 M525 234.72698974609375 C523.4056005423917 233.14659185467698, 527.0490214083136 230.6172185264322, 532.0799528492196 227.25733365556587 M531 228.72698974609375 C531 228.72698974609375, 531 228.72698974609375, 531 228.72698974609375" stroke="rgb(0, 0, 139)" stroke-width="1" fill="none"/></g><g stroke-linecap="square"><path d="M650.3736947781047 219.1437818213145 L720.2941499344677 217.511448134285 L724.5740488112049 222.03040533488078 L723.3258018830057 224.94146456292842 L725.3732376368964 282.58208819644074 L721.0680439392861 288.8053831591011 L720.4594198092373 289.52517633709573 L652.3917258817264 287.94020278683485 L647.0952995309814 287.09289403256963 L644.1527992684114 283.9726338694881 L644.645748583923 222.75940735073624 L648.2464428590181 221.08687957498046 L650.8953334073472 217.74190362956168" stroke="none" stroke-width="0" fill="rgb(250, 250, 250)"/><path d="M651.7118280310531 219.24320521289394 M650.9912359090969 220.36754245414312 C664.4343061569836 216.6128354892459, 681.2526022288963 218.7182278428907, 717.2898591990783 219.68392183113713 M719 218.72698974609375 C722.5982919344041 219.35637557698087, 723.17218837413 222.6573741066455, 726.2775423497695 226.65608434294245 M724.106901088316 224.4115866708605 C723.6806426774946 246.3380064893021, 725.1539154788096 266.4025451268384, 726.4494563163818 282.3979876347557 M725 282.72698974609375 C723.8702235669427 286.43443406940264, 720.7120602264873 286.80983012514423, 718.4708273099872 288.5017029145335 M720.3767294385333 288.65686848593947 C704.794124669413 288.70232599046216, 685.1904541120598 290.88645555481435, 652.2722931758082 287.3258290517581 M651 288.72698974609375 C646.3326681172581 289.83904573673755, 643.1987480573439 285.16097842964365, 645.8395258235147 283.22026493487795 M645.6299768788415 284.37125961832425 C643.1985577979746 265.01168594180723, 646.569574225936 245.86943563964078, 646.8766334905587 222.87925065564687 M645 224.72698974609375 C646.8946236556504 222.96730407016364, 648.108796881296 218.4785374285859, 649.762375715064 216.7336264720127 M651 218.72698974609375 C651 218.72698974609375, 651 218.72698974609375, 651 218.72698974609375" stroke="rgb(0, 0, 139)" stroke-width="1" fill="none"/></g><g stroke-linecap="square"><path d="M772.8028495602107 212.18336182874944 L838.1311813090124 211.84687536602846 L845.2168467738338 213.370509392295 L846.192849324017 216.64774542594475 L846.5583486143584 288.74295652038853 L844.34067013836 293.2596927501485 L840.3869530490412 294.0556142874692 L769.4737080683309 295.99566011509853 L767.9180721593884 293.28133860438396 L765.5876655837418 290.0599481236633 L766.6879343351203 216.50467362055235 L767.3385065489844 215.08475250672495 L770.3510098913264 212.2819848843926" stroke="none" stroke-width="0" fill="rgb(250, 250, 250)"/><path d="M769.4108399905423 213.69353640209192 M771.16592755533 213.43441439582722 C797.0306937359601 213.5772954108988, 824.2078138614361 211.55820314064658, 838.8353464187577 211.74503833008058 M839 211.71428680419922 C841.5411381357563 213.49532578296038, 846.2372767634037 216.67569029253013, 843.0260658062393 218.89636816826265 M845.5919143076393 215.9809656681183 C844.8645248420671 235.63673928913818, 845.9510738582217 248.68881431549187, 844.762983582937 289.6419340262347 M845 289.73968505859375 C844.0710278503869 291.6768535551202, 841.802706472884 296.8911673596895, 838.8173582500701 293.77219155411495 M837.660988374096 296.1163534780905 C812.5604002939778 294.3323341770333, 786.5858250313972 296.0839239793546, 770.4314641737299 296.50618129421457 M771 295.73968505859375 C766.3393680588139 294.1270867958539, 765.3761499693355 293.39719335547176, 765.062855159641 289.28615252664076 M763.6453134650112 291.3243237877929 C765.0697209535762 265.6796963869887, 765.8291434320803 239.4248391759516, 763.4843610084413 216.12000960255043 M765 217.71428680419922 C765.8957965580671 214.03569773144008, 766.7395144894131 209.78675478624908, 772.5434712874749 212.97234543362774 M771 211.71428680419922 C771 211.71428680419922, 771 211.71428680419922, 771 211.71428680419922" stroke="rgb(0, 0, 139)" stroke-width="1" fill="none"/></g><g><path d="M909.3692692916148 278.8994353710705 L900.6154612597568 274.8234988598747 L893.449928096241 271.954228005096 L886.1547031366224 262.37962212965 L883.1434247456497 253.52334797535784 L887.2745197994252 244.805363103794 L892.5347117987377 237.17918310216024 L900.7719289866078 232.0002129429855 L909.529924903896 227.76811787661387 L918.1227620639103 232.52017046097274 L928.5913296214594 235.0864345045415 L934.3877383903217 243.6425864747045 L934.549028331237 253.0289380790169 L931.7712634384478 263.8143774968801 L925.928137981116 271.756329452277 L918.6080638050745 275.65777719190595 L911.2177695270145 277.5064476828446" stroke="none" stroke-width="0" fill="rgb(250, 250, 250)"/><path d="M911.7812886499855 276.8416923372218 M910 278.72698974609375 C895.4862481280354 277.5417482113062, 883.771206542599 268.9852205303669, 886.8203005812275 252.70756378380815 M885 253.72698974609375 C885.7980402007929 240.81626583449327, 898.0935862502208 230.25953799984458, 911.0074950086452 230.3676304602648 M910 228.72698974609375 C924.397746058737 230.42605693841244, 935.2552313078747 241.00781505820626, 934.2583266703826 253.2311743848986 M935 253.72698974609375 C936.449624203237 269.23982430432795, 923.5863974684831 279.2727891162607, 908.1495868502635 279.1230265306381 M910 278.72698974609375 C910 278.72698974609375, 910 278.72698974609375, 910 278.72698974609375" stroke="rgb(255, 0, 0)" stroke-width="3" fill="none"/></g><g><path d="M910.4394084272667 272.08959276362276 L904.2840107627324 270.1136875477341 L896.7239130430725 268.5458540594512 L892.6207154419619 263.05969222005183 L888.5298606350082 251.9555032498855 L893.0206879367524 245.16132547923536 L895.1861348926996 241.3506160910735 L900.8220915966758 234.40359515506358 L909.5609512672127 233.24398043245836 L918.8986085529634 235.0575470641511 L923.8732236531707 239.14464408379618 L929.8482513634594 244.02360400903723 L931.4449421224145 255.68987783512318 L929.3693442865733 262.6934407403345 L924.0652325007281 267.37820200764276 L918.4712462926857 270.5210586667001 L908.3017740737223 272.8709190368572" stroke="none" stroke-width="0" fill="rgb(0, 0, 0)"/><path d="M908.0289511049803 272.2428496726452 M909.9999998092651 273.5269895553589 C899.2848344891173 273.3521900736359, 888.35556551976 264.1710376437122, 889.3400308582687 252.03942826473053 M890.1999998092651 253.7269895553589 C888.4700111104485 244.23492961063974, 900.0736081273174 232.01997141871558, 911.3841825935738 233.7447251312569 M909.9999998092651 233.9269895553589 C920.9283884608337 234.85041750076178, 929.872953152839 241.36162638092188, 930.2587673888573 251.84447871292105 M929.7999998092652 253.7269895553589 C927.8163537476818 265.2568769583445, 919.3946764708409 274.01274220634735, 908.5516486714045 273.83268441206815 M909.9999998092651 273.5269895553589 C909.9999998092651 273.5269895553589, 909.9999998092651 273.5269895553589, 909.9999998092651 273.5269895553589" stroke="rgb(0, 0, 0)" stroke-width="1" fill="none"/></g><g><path d="M205.6087118433142 110.55296408850356 M205.9915016534376 112.56693214518658 C205.07069006362255 155.56551283874177, 206.06118100014177 198.0640989093649, 205.22229656024538 219.32613989842721" stroke="rgb(0, 0, 0)" stroke-width="1" fill="none" stroke-dasharray="2 2" stroke-dashoffset="1"/></g><g><path d="M207.13983228336357 107.9194816156133 L203.88386644931393 110.33522133387876 L201.2639129106457 107.89790462866088 L205.46409223257197 106.14093884407785 L209.962915377858 110.98583771977107" stroke="none" stroke-width="0" fill="rgba(255, 255, 255, 0)"/><path d="M209.9709281857667 110.81045911259456 M208 109 C208.58684902718196 110.60991589418636, 207.9029503317674 111.61873523400637, 205.82665477898854 112.20342483043841 M205 112 C203.38506485968657 113.18152436000088, 202.30105393089548 109.72646957162, 201.68931520777204 108.58599730956556 M202 109 C201.9071119835816 106.42655729955182, 201.8392415644336 104.67973730230963, 205.2424699528493 105.00607421179296 M205 106 C207.8820712872649 105.45028143969913, 209.7506558349524 107.37075146341462, 207.19522832384638 107.21185560979549 M208 109 C208 109, 208 109, 208 109" stroke="rgb(0, 0, 0)" stroke-width="1" fill="none"/></g><g><path d="M207.61227155682832 220.36029023775092 L205.91130803148698 229.05328072273446 L200.63969768260597 221.43077567426073 L207.8991230659977 218.5662134312184" stroke="none" stroke-width="0" fill="rgba(255, 255, 255, 0)"/><path d="M208.35997288527875 220.9468013880335 M208.40301888769127 220.06160024662935 C206.34321904899497 222.857573900477, 206.0028280092663 225.1186124782896, 205.16903560833762 227.66000996882767 M205.84391668523043 228.18494035531282 C204.3588359271371 225.8310838282792, 202.99415987705686 221.91211108335918, 202.4746232186057 220.103307768401 M201.65324791702258 219.38371052729636 C204.50894542934802 220.17844486507474, 206.04191308331818 219.89950828426106, 207.54430902781456 219.6805169747931" stroke="rgb(0, 0, 0)" stroke-width="1" fill="none"/></g><g><path d="M324.43709301026587 222.48421377638664 M323.13978737044164 221.48766721811182 C322.5094019457747 182.3470110089778, 323.79018655709757 146.28391751816287, 326.26222335817243 122.92912514944737" stroke="rgb(0, 0, 0)" stroke-width="1" fill="none" stroke-dasharray="2 2" stroke-dashoffset="1"/></g><g><path d="M321.69619140119704 225.77953705003003 L323.4917310190675 220.01718225835452 L328.40097407300755 224.5197725175511 L323.6652187137513 229.12380433323617 L322.2979967014799 226.11641338953262" stroke="none" stroke-width="0" fill="rgba(255, 255, 255, 0)"/><path d="M323.19857241081985 224.49283284946162 M322 224.72698974609375 C320.1554522066698 222.13111650108988, 324.1660623511165 221.2012227347378, 325.3791070691509 221.5750301462169 M322.9463926971543 223.51567164192844 C320.0339509045519 223.1664024599576, 323.2298801030397 223.76661453750668, 323.1049053356685 221.12858917676846 M325 221.72698974609375 C327.3335029666654 222.2997315318263, 326.12861968541176 222.67987193687708, 327.39769831555515 225.15163955811806 M325.2887554117501 223.43359093417328 C325.742458825563 223.09246879954628, 329.3465459786459 223.338927671245, 328.2831311609464 224.14167901354915 M328 224.72698974609375 C327.27042729698826 226.57963745146338, 325.34251497492744 226.00816236172173, 324.99199496859404 225.90876005996978 M327.1917869865328 223.06892503864168 C325.8749325823434 225.64081858978938, 325.41974613834753 226.4888921685493, 324.7763399312047 228.22785274487276 M325 227.72698974609375 C322.34591174061626 228.17473955171047, 323.14405874482253 225.77445414183697, 321.9161989587699 225.6481299312451 M325.806295938104 226.23508109546182 C322.1740766095461 228.45953418498246, 323.6229811160869 226.63565179718898, 321.0135732314029 223.4498980538007 M322 224.72698974609375 C322 224.72698974609375, 322 224.72698974609375, 322 224.72698974609375 M322 224.72698974609375 C322 224.72698974609375, 322 224.72698974609375, 322 224.72698974609375" stroke="rgb(0, 0, 0)" stroke-width="1" fill="none"/></g><g><path d="M323.6544216575321 123.88352947855738 L326.1284786934339 116.59472135964427 L327.5812235083861 125.81412802479383 L320.5267651986698 123.96318848437393" stroke="none" stroke-width="0" fill="rgba(255, 255, 255, 0)"/><path d="M320.7192289570053 122.21472185498763 M321.6978157434732 124.61439401037842 C322.43938394393535 121.77338520893471, 322.72429809785496 120.05335714605609, 324.528265871829 116.64707438607637 M322.3912014059662 123.61505759641844 C322.4399391131755 121.85796053035446, 323.2361220726476 119.75821819044651, 325.25765899988573 116.23745681262739 M324.43029125496906 116.23817172554021 C326.2054444458652 117.47427727866997, 327.33338174294767 120.04836626426903, 328.3520457216339 124.51779066097883 M325.20656837981056 115.99056716901015 C326.4956449976666 119.34232597038893, 326.9941107381445 122.13573258937514, 327.7203926119132 124.24170063360431 M328.3764977901367 124.15296057522465 C326.1211122243291 123.87846433764814, 325.2442774330033 123.6948164793244, 321.5879624112258 124.13489859604452 M328.0890510764577 123.75124722272228 C325.6020259735373 124.1798699898926, 323.53146758187256 124.27992097076714, 322.2693907493165 123.79719769062326" stroke="rgb(0, 0, 0)" stroke-width="1" fill="none"/></g><g><path d="M443.327716807741 223.03045136828558 M445.46134649619125 222.93934728383462 C445.76743620072494 194.01887800650954, 445.4034227091454 167.6053497200377, 445.91433062453973 124.08609600071159" stroke="rgb(0, 0, 0)" stroke-width="1" fill="none" stroke-dasharray="2 2" stroke-dashoffset="1"/></g><g><path d="M441.7649454067595 223.7096084705395 L443.95828411590827 222.2493513279615 L447.6138834868564 223.50911710441682 L446.36749148883484 225.76020140884037 L443.3465933865674 226.65058192438295" stroke="none" stroke-width="0" fill="rgba(255, 255, 255, 0)"/><path d="M441.9795228606245 224.57875916955174 M442 224.72698974609375 C440.34038252464927 222.31699387939216, 445.0996349632391 221.22882121743277, 446.786482800543 219.7886893882276 M445 221.72698974609375 C446.1830037141238 222.64590142786898, 448.11581008897997 222.66212765807958, 447.38281191890985 225.28728752532365 M448 224.72698974609375 C449.8210507410533 224.67633715003313, 447.36311688246036 226.34839944598752, 446.67410423154485 226.4074848396045 M445 227.72698974609375 C443.4427060985944 228.0745860520006, 443.8148235757988 225.42313772708096, 440.56676944850943 224.12780730826583 M442 224.72698974609375 C442 224.72698974609375, 442 224.72698974609375, 442 224.72698974609375" stroke="rgb(0, 0, 0)" stroke-width="1" fill="none"/></g><g><path d="M440.15686252504275 123.56030387081626 L444.4651123063113 117.42683787138374 L447.2549194521704 122.37484675084804 L440.1082240366442 122.41978170686266" stroke="none" stroke-width="0" fill="rgba(255, 255, 255, 0)"/><path d="M440.32342816985016 122.36263375237363 M441.4756284980947 124.61395277369738 C443.75095561223117 121.75361969475644, 444.64522987540556 118.8132142800638, 445.5781441001248 115.1801144084875 M442.1806617241121 123.78169085973812 C442.8416391101606 121.1010776517129, 444.76048118901326 117.66653407521984, 444.82277702524334 116.2638441256302 M444.2683491682618 116.13043182211025 C446.16876129150427 118.80362918227654, 446.89174467566534 120.08862761418423, 447.8858133889236 124.44096792334348 M444.61210778441614 116.41051301717452 C446.03237922985016 118.64353698809948, 447.3876977029086 121.8594687721557, 447.6975115379776 123.67620500673124 M447.60528629004085 123.90306364421392 C446.96270661575 123.49766653326675, 445.864654437929 123.68382081410421, 441.63812289596933 124.03626583137557 M447.7700146452259 124.22608438953476 C445.8924003043551 124.07330749213345, 443.8893143862824 124.0674780326776, 441.84053051322184 123.79015188429926" stroke="rgb(0, 0, 0)" stroke-width="1" fill="none"/></g><g><path d="M686.2406997572551 213.11143484075 M684.4818429892222 213.4071557081132 C682.528217817133 192.9478604213716, 685.9985942069137 171.65514369604915, 686.5334901877817 125.1218025604106" stroke="rgb(0, 0, 0)" stroke-width="1" fill="none" stroke-dasharray="2 2" stroke-dashoffset="1"/></g><g><path d="M680.5267122230641 213.13421081939367 L684.3701250181363 211.80854596296447 L689.6126614617945 215.53600588775012 L683.0449792557913 219.15294810085211 L680.6197390519935 212.96529672233189" stroke="none" stroke-width="0" fill="rgba(255, 255, 255, 0)"/><path d="M683.0284075312729 214.97459376098323 M682 214.72698974609375 C680.9287026849371 213.76698315984413, 681.8769563232557 210.85538185858516, 684.3858638232927 213.01886035088071 M680.6554337812181 216.6909487777485 C680.7087174356109 215.2990047841787, 682.5676677455492 210.08302983298836, 687.2158850962941 211.2842950768745 M685 211.72698974609375 C687.5620002716514 213.28378687567465, 689.6339467517263 212.4697457885874, 686.6397744876201 214.42334908411166 M683.7219851597383 212.74302898112362 C685.5894643058924 212.71597341561124, 688.2493556108919 212.48306551160422, 687.7314095310537 212.4821373246021 M688 214.72698974609375 C686.9593139687527 214.47672222836755, 685.1417140063044 219.69200638246332, 686.1254883310215 218.72900693020478 M687.0112445996384 215.25979286318588 C689.0040108690566 218.4541503510301, 686.3884529327428 216.80061251018287, 685.8173896592857 218.44733090505864 M685 217.72698974609375 C682.6969186710645 219.25587820694292, 681.6694154100162 214.664539627319, 683.9509562286412 215.87027238593384 M686.0578597646628 216.27771804010004 C683.9726660948181 218.8232769924547, 679.8769715105185 217.76197430810677, 681.2603149982173 215.9250864855418 M682 214.72698974609375 C682 214.72698974609375, 682 214.72698974609375, 682 214.72698974609375 M682 214.72698974609375 C682 214.72698974609375, 682 214.72698974609375, 682 214.72698974609375" stroke="rgb(0, 0, 0)" stroke-width="1" fill="none"/></g><g><path d="M683.7705590799821 125.31693188541581 L684.763026874143 116.23990496206699 L686.1912278899879 125.05500996277625 L681.8474539397617 122.32403356026983" stroke="none" stroke-width="0" fill="rgba(255, 255, 255, 0)"/><path d="M683.6842620545839 122.11552475406444 M681.5371228551609 124.10071050402989 C682.9545624823332 121.93933876294706, 682.6328326479239 120.65220374272886, 685.7825608996377 115.79052103938578 M685.815233556566 115.62735549838492 C685.8621525419303 117.90135054438075, 687.1772815377777 120.75769388990521, 687.7201626601753 124.79219541090454 M687.942604691974 124.00194502977354 C686.1472220345379 124.28694102390794, 685.7904312822812 124.25938987332084, 682.0297381193388 124.57872296654458" stroke="rgb(0, 0, 0)" stroke-width="1" fill="none"/></g><g><path d="M803.6181814212019 120.07922462523862 M803.3623665821083 123.26408123289373 C803.4190625442219 140.79193726092, 804.2855345274726 161.4842051645254, 804.7762447667278 203.15583975965188" stroke="rgb(0, 0, 0)" stroke-width="1" fill="none" stroke-dasharray="2 2" stroke-dashoffset="1"/></g><g><path d="M809.8111200935915 118.83837926854126 L805.20319463918 122.18104002484645 L802.0310285229593 120.79844092103181 L804.4076453017996 117.01681156477116 L807.5316319335516 118.81785480540461" stroke="none" stroke-width="0" fill="rgba(255, 255, 255, 0)"/><path d="M809.406793498151 118.27939271879299 M808 119 C809.4237317975955 121.49631997571662, 806.923682213806 120.00998837507777, 805.5404158411484 121.80317950260766 M808.8207984663588 118.89986791778499 C807.9686441453841 118.81903871216932, 805.0033747953103 119.74277131661714, 803.6479837046738 121.57591718056946 M805 122 C804.9866648637998 123.44026924611282, 800.721361687733 118.71109340023364, 801.6498595625786 119.79160063224619 M804.9899889567021 120.5229155371228 C803.0159388775967 121.81368113557879, 801.2311029421563 122.51317293674002, 804.1347611230108 120.75905124867464 M802 119 C803.3653678706498 115.88284837569788, 802.0338095891781 116.633962464018, 806.6577264526815 117.1340578903824 M801.4994057925322 120.96038152663128 C801.8221589103475 116.22264330941906, 801.3615563000452 115.83957382455007, 802.7863811955825 115.15119188372633 M805 116 C805.2244256959126 116.22227780257141, 807.1287345333546 118.86062438469517, 806.3059127129566 120.95285634788036 M805.9449773232758 117.60518252078212 C808.8722123392539 115.55492675476616, 809.7027673242918 118.8187805802633, 807.5349583737623 118.23297534520461 M808 119 C808 119, 808 119, 808 119 M808 119 C808 119, 808 119, 808 119" stroke="rgb(0, 0, 0)" stroke-width="1" fill="none"/></g><g><path d="M809.96219358169 202.7174239370062 L805.856298348709 210.45626513941147 L801.7188800418755 203.8473190255257 L806.0141661882659 202.23014195525417" stroke="none" stroke-width="0" fill="rgba(255, 255, 255, 0)"/><path d="M808.1081838142679 204.4145674914956 M807.5478835448233 202.09501633909423 C807.2112212407542 205.19746430759042, 805.3141647899479 208.62734532497137, 805.1010239739381 211.018192162651 M804.8024038251106 210.50650995351836 C804.5933917716667 207.9575137343971, 802.7328323369271 207.04662009473924, 802.7744588542922 202.8015154387037 M801.6687016047192 202.65787114689394 C804.0564550838099 202.68820289012393, 805.8311754670999 202.29878204210016, 807.5327428950418 202.84009222994808" stroke="rgb(0, 0, 0)" stroke-width="1" fill="none"/></g><g><path d="M543.0559065394826 222.60947031487876 M544.5033271682746 222.5545970704451 C544.6925061731256 196.4816131927169, 543.8969288801283 172.52583253834462, 546.6230147823269 113.63604876182316 M545.6798348455235 221.35635189830674 C545.352386346738 187.62350288408973, 546.1929681554851 153.13703655211503, 545.2515324812915 113.32638454444488" stroke="rgb(0, 0, 0)" stroke-width="1" fill="none" stroke-dasharray="2 2" stroke-dashoffset="1"/></g><g><path d="M540.9872190124526 224.16661859853548 L543.3252737370567 222.1567963723973 L547.3877443512915 224.81621660086043 L544.0776284217326 228.08456437220485 L541.8790767981554 225.19797870613235" stroke="none" stroke-width="0" fill="rgba(255, 255, 255, 0)"/><path d="M542.5928207702732 223.04211577772696 M542 224.72698974609375 C543.3998752772872 222.2316290540203, 545.0158898681017 222.7568585289601, 543.5131585915519 222.81376835972551 M545 221.72698974609375 C547.9363478793314 221.72558932152094, 546.4878776990179 222.68133164750344, 548.816049394849 225.5828298387739 M548 224.72698974609375 C547.9208555757589 224.7747058440675, 548.4977577161383 226.05123947582237, 546.7183206488263 227.91160154565068 M545 227.72698974609375 C541.4882629176296 226.54817730305, 542.9842774927765 227.02820498498326, 542.4158766186506 223.18667582275523 M542 224.72698974609375 C542 224.72698974609375, 542 224.72698974609375, 542 224.72698974609375" stroke="rgb(0, 0, 0)" stroke-width="1" fill="none"/></g><g><path d="M543.1022091836657 115.25697747781801 L544.7354271298536 104.46287376244833 L548.9685982753526 112.98703747855296 L541.138448137863 112.80827868785968" stroke="none" stroke-width="0" fill="rgba(255, 255, 255, 0)"/><path d="M543.6277091862493 112.19431917364551 M541.6964986283594 113.40835862119314 C543.3457430749414 111.24940327455121, 543.7103899736974 109.99568533109196, 545.175746247501 105.78749669976203 M545.6943447091876 106.71326360236756 C546.3139729585399 108.13036658577815, 547.2493094462825 111.94598252550888, 547.3128465340388 114.36376189026942 M548.5723184941522 114.4747802900524 C546.3882166548289 114.44025617281947, 544.8270781191709 113.92808119240073, 541.5400570597951 113.86301266148074" stroke="rgb(0, 0, 0)" stroke-width="1" fill="none"/></g><g><path d="M586.1673915301067 112.47227140944823 M585.9445625693039 110.61014410155524 C584.3660372688665 140.35282589098185, 586.7463399069311 166.80458921953604, 585.6210778955747 220.17670111777616" stroke="rgb(0, 0, 0)" stroke-width="1" fill="none" stroke-dasharray="2 2" stroke-dashoffset="1"/></g><g><path d="M587.7160435454452 110.01851396844262 L585.822384402835 112.65721887257867 L581.8109891066059 108.66483101880371 L586.5357336907387 107.68890018169867 L586.0097999852084 108.49124989616911" stroke="none" stroke-width="0" fill="rgba(255, 255, 255, 0)"/><path d="M587.7545963220424 107.59143688321548 M588 109 C586.6935690782084 111.69877286588411, 588.0677352944886 111.55581211194382, 586.7153276062351 110.09628525041703 M588.8425650823532 108.55612550286692 C586.6173411830953 109.20153621262004, 585.1214515201813 110.76678060631033, 585.6710130774421 111.46894285194522 M585 112 C584.4059385244996 113.61938324371036, 582.291385026687 110.77790591790422, 583.5605873804166 110.70794115576648 M585.1127260072651 110.94531499680002 C581.883152531126 110.6788521442398, 581.8885098390173 110.99951746197786, 583.0062407041524 110.7831299631005 M582 109 C582.8883980937129 107.45877873411571, 583.5186866293401 104.20675087242006, 586.7440075972389 106.02417277734185 M583.0218378443461 107.82001017061565 C581.8437283557778 105.59867031435196, 584.2009492571699 103.98501467982288, 586.9855946417156 103.90038699757979 M585 106 C586.7490219875539 107.25208872782876, 589.1151116240495 105.57454924450717, 587.0886048782705 107.82803415979662 M586.2813468493343 107.90202147781673 C588.5809930134942 107.03986232869335, 586.882529466397 106.13526958511055, 587.3677610571199 109.46481157431354 M588 109 C588 109, 588 109, 588 109 M588 109 C588 109, 588 109, 588 109" stroke="rgb(0, 0, 0)" stroke-width="1" fill="none"/></g><g><path d="M586.530809660017 221.35055769389407 L586.7480822390696 229.02304690140954 L582.6251147185973 217.98487683096383 L586.1273506593864 220.5144742331582" stroke="none" stroke-width="0" fill="rgba(255, 255, 255, 0)"/><path d="M587.0527891984684 217.745492428844 M587.5346694994473 219.35175048067717 C586.3016637233875 222.9347598845108, 586.4962138089143 224.54408746608243, 584.2184524151594 227.77102005073394 M588.3047556169047 219.37080121882738 C587.32553339346 221.7372931719673, 586.9496985139842 223.62180010957078, 585.0452698258972 227.98859602214984 M585.6064380954374 227.8967415042491 C583.8750848958861 226.19297370053673, 583.1930898869476 224.08121547566103, 581.7832501367341 220.0573863747992 M585.0988198662451 228.12769601607516 C584.2407551071655 224.9874777199265, 582.3980593097211 221.90354203897, 581.9180770807056 219.70116065245625 M581.5317167821868 220.10083847580506 C584.1784267386649 219.30116142983067, 587.1534783146143 219.6401045567663, 588.1847411486931 220.2203046635723 M581.8064448451 219.80843650859774 C584.2395303870004 219.9406123453246, 586.8474122288235 219.83331975809025, 587.8013609061371 219.8912015427177" stroke="rgb(0, 0, 0)" stroke-width="1" fill="none"/></g><g class="text-container" transform="matrix(1.60812e-16 -1 1 1.60812e-16 198.195 166.863)"><text font-family="'Arial'" font-size="12px" font-style="normal" font-weight="normal" text-anchor="middle" fill="rgb(0,0,0)" fill-opacity="1" dy="0.93359375em" style="font-style: normal;font-weight: 400;font-size: 12px;font-family: Comic Sans MS, cursive;">Application</text></g><g class="text-container" transform="matrix(6.12323e-17 -1 1 6.12323e-17 309.195 171.863)"><text font-family="'Arial'" font-size="12px" font-style="normal" font-weight="normal" text-anchor="middle" fill="rgb(0,0,0)" fill-opacity="1" style="font-style: normal;font-weight: 400;font-size: 12px;font-family: Comic Sans MS, cursive;">
        <tspan x="0" dy="0.93359375em">Confirmation</tspan>
        <tspan x="0" dy="1.5em">of Receipt</tspan>
      </text></g><g class="text-container" transform="matrix(6.12323e-17 -1 1 6.12323e-17 438.195 171.863)"><text font-family="'Arial'" font-size="12px" font-style="normal" font-weight="normal" text-anchor="middle" fill="rgb(0,0,0)" fill-opacity="1" dy="0.93359375em" style="font-style: normal;font-weight: 400;font-size: 12px;font-family: Comic Sans MS, cursive;">Invitation</text></g><g class="text-container" transform="matrix(6.12323e-17 -1 1 6.12323e-17 669.195 166.863)"><text font-family="'Arial'" font-size="12px" font-style="normal" font-weight="normal" text-anchor="middle" fill="rgb(0,0,0)" fill-opacity="1" style="font-style: normal;font-weight: 400;font-size: 12px;font-family: Comic Sans MS, cursive;">
        <tspan x="0" dy="0.93359375em">Employment</tspan>
        <tspan x="0" dy="1.5em">Contract</tspan>
      </text></g><g class="text-container" transform="matrix(1.60812e-16 -1 1 1.60812e-16 780.195 163.357)"><text font-family="'Arial'" font-size="12px" font-style="normal" font-weight="normal" text-anchor="middle" fill="rgb(0,0,0)" fill-opacity="1" style="font-style: normal;font-weight: 400;font-size: 12px;font-family: Comic Sans MS, cursive;">
        <tspan x="0" dy="0.93359375em">Signed</tspan>
        <tspan x="0" dy="1.5em">Employment</tspan>
        <tspan x="0" dy="1.5em">Contract</tspan>
      </text></g><g class="text-container" transform="matrix(6.12323e-17 -1 1 6.12323e-17 538.195 166.863)"><text font-family="'Arial'" font-size="12px" font-style="normal" font-weight="normal" text-anchor="middle" fill="rgb(0,0,0)" fill-opacity="1" dy="0.93359375em" style="font-style: normal;font-weight: 400;font-size: 12px;font-family: Comic Sans MS, cursive;">Question</text></g><g class="text-container" transform="matrix(1.60812e-16 -1 1 1.60812e-16 578.195 166.863)"><text font-family="'Arial'" font-size="12px" font-style="normal" font-weight="normal" text-anchor="middle" fill="rgb(0,0,0)" fill-opacity="1" dy="0.93359375em" style="font-style: normal;font-weight: 400;font-size: 12px;font-family: Comic Sans MS, cursive;">Answer</text></g><g class="text-container" transform="matrix(1 0 0 1 205 64.1953)"><text font-family="'Arial'" font-size="12px" font-style="normal" font-weight="normal" text-anchor="middle" fill="rgb(0,0,0)" fill-opacity="1" style="font-style: normal;font-weight: 400;font-size: 12px;font-family: Comic Sans MS, cursive;">
        <tspan x="0" dy="0.93359375em">Write Job</tspan>
        <tspan x="0" dy="1.5em">Application</tspan>
      </text></g><g class="text-container" transform="matrix(1 0 0 1 325 55.1953)"><text font-family="'Arial'" font-size="12px" font-style="normal" font-weight="normal" text-anchor="middle" fill="rgb(0,0,0)" fill-opacity="1" style="font-style: normal;font-weight: 400;font-size: 12px;font-family: Comic Sans MS, cursive;">
        <tspan x="0" dy="0.93359375em">Receive</tspan>
        <tspan x="0" dy="1.5em">Confirmation</tspan>
        <tspan x="0" dy="1.5em">of Receipt</tspan>
      </text></g><g class="text-container" transform="matrix(1 0 0 1 445 55.1953)"><text font-family="'Arial'" font-size="12px" font-style="normal" font-weight="normal" text-anchor="middle" fill="rgb(0,0,0)" fill-opacity="1" style="font-style: normal;font-weight: 400;font-size: 12px;font-family: Comic Sans MS, cursive;">
        <tspan x="0" dy="0.93359375em">Receive </tspan>
        <tspan x="0" dy="1.5em">Invitation to</tspan>
        <tspan x="0" dy="1.5em">Interview</tspan>
      </text></g><g class="text-container" transform="matrix(1 0 0 1 565 64.1953)"><text font-family="'Arial'" font-size="12px" font-style="normal" font-weight="normal" text-anchor="middle" fill="rgb(0,0,0)" fill-opacity="1" style="font-style: normal;font-weight: 400;font-size: 12px;font-family: Comic Sans MS, cursive;">
        <tspan x="0" dy="0.93359375em">Take Part in</tspan>
        <tspan x="0" dy="1.5em">Interview</tspan>
      </text></g><g class="text-container" transform="matrix(1 0 0 1 685 55.1953)"><text font-family="'Arial'" font-size="12px" font-style="normal" font-weight="normal" text-anchor="middle" fill="rgb(0,0,0)" fill-opacity="1" style="font-style: normal;font-weight: 400;font-size: 12px;font-family: Comic Sans MS, cursive;">
        <tspan x="0" dy="0.93359375em">Receive</tspan>
        <tspan x="0" dy="1.5em">Employment</tspan>
        <tspan x="0" dy="1.5em">Contract</tspan>
      </text></g><g class="text-container" transform="matrix(1 0 0 1 805 55.1953)"><text font-family="'Arial'" font-size="12px" font-style="normal" font-weight="normal" text-anchor="middle" fill="rgb(0,0,0)" fill-opacity="1" style="font-style: normal;font-weight: 400;font-size: 12px;font-family: Comic Sans MS, cursive;">
        <tspan x="0" dy="0.93359375em">Sign Contract</tspan>
        <tspan x="0" dy="1.5em">and Send It</tspan>
        <tspan x="0" dy="1.5em">Back</tspan>
      </text></g><g class="text-container" transform="matrix(1 0 0 1 205 237.922)"><text font-family="'Arial'" font-size="12px" font-style="normal" font-weight="normal" text-anchor="middle" fill="rgb(0,0,0)" fill-opacity="1" style="font-style: normal;font-weight: 400;font-size: 12px;font-family: Comic Sans MS, cursive;">
        <tspan x="0" dy="0.93359375em">Receive</tspan>
        <tspan x="0" dy="1.5em">Application</tspan>
      </text></g><g class="text-container" transform="matrix(1 0 0 1 325 237.922)"><text font-family="'Arial'" font-size="12px" font-style="normal" font-weight="normal" text-anchor="middle" fill="rgb(0,0,0)" fill-opacity="1" style="font-style: normal;font-weight: 400;font-size: 12px;font-family: Comic Sans MS, cursive;">
        <tspan x="0" dy="0.93359375em">Confirm</tspan>
        <tspan x="0" dy="1.5em">Receipt</tspan>
      </text></g><g class="text-container" transform="matrix(1 0 0 1 445 237.922)"><text font-family="'Arial'" font-size="12px" font-style="normal" font-weight="normal" text-anchor="middle" fill="rgb(0,0,0)" fill-opacity="1" style="font-style: normal;font-weight: 400;font-size: 12px;font-family: Comic Sans MS, cursive;">
        <tspan x="0" dy="0.93359375em">Invite to</tspan>
        <tspan x="0" dy="1.5em">Interview</tspan>
      </text></g><g class="text-container" transform="matrix(1 0 0 1 565 237.922)"><text font-family="'Arial'" font-size="12px" font-style="normal" font-weight="normal" text-anchor="middle" fill="rgb(0,0,0)" fill-opacity="1" style="font-style: normal;font-weight: 400;font-size: 12px;font-family: Comic Sans MS, cursive;">
        <tspan x="0" dy="0.93359375em">Carry Out</tspan>
        <tspan x="0" dy="1.5em">Interview</tspan>
      </text></g><g class="text-container" transform="matrix(1 0 0 1 685 228.922)"><text font-family="'Arial'" font-size="12px" font-style="normal" font-weight="normal" text-anchor="middle" fill="rgb(0,0,0)" fill-opacity="1" style="font-style: normal;font-weight: 400;font-size: 12px;font-family: Comic Sans MS, cursive;">
        <tspan x="0" dy="0.93359375em">Send</tspan>
        <tspan x="0" dy="1.5em">Employment</tspan>
        <tspan x="0" dy="1.5em">Contract</tspan>
      </text></g><g class="text-container" transform="matrix(1 0 0 1 805 219.922)"><text font-family="'Arial'" font-size="12px" font-style="normal" font-weight="normal" text-anchor="middle" fill="rgb(0,0,0)" fill-opacity="1" style="font-style: normal;font-weight: 400;font-size: 12px;font-family: Comic Sans MS, cursive;">
        <tspan x="0" dy="0.93359375em">Receive</tspan>
        <tspan x="0" dy="1.5em">Signed</tspan>
        <tspan x="0" dy="1.5em">Employment</tspan>
        <tspan x="0" dy="1.5em">Contract</tspan>
      </text></g></svg>