<?xml version="1.0" encoding="UTF-8"?>
<svg version="1.1" viewBox="0 0 590 615" xmlns="http://www.w3.org/2000/svg">
 <g>
  <rect width="590" height="615" fill="#fff"/>
 </g>
 <g>
  <g stroke="#000" stroke-linecap="round" stroke-width="3">
   <path transform="translate(230,10)" d="m0 0 350 175v425l-350-175z" fill="#cff" stroke-linejoin="round"/>
   <g>
    <g transform="translate(330,190)">
     <path d="m0 0v80l120 60 120-60v-80l-120-60-30 15v35l-30 15v-5l-30-15z" fill="#fc9"/>
     <path d="m0 0 30 15 30-15m-30 15v35l90 45v45m0-45 90-45v-35l30-15m-30 15-120-60m0 35 120 60" fill="none" stroke-linejoin="bevel"/>
     <path d="m60 5v30l-30 15" fill="none" stroke-linejoin="bevel"/>
    </g>
    <path d="m150 360 180-90" fill="none" stroke="#00c" stroke-dasharray="6, 9" stroke-width="1"/>
    <g transform="translate(10,25)">
     <path d="m20 315v80l120 60 120-60v-45l-90-45v-35l-30-15-30 15v35l-25 12.5-35-17.5z" fill="#f90"/>
     <path d="m20 315 120 60v80m0-80 30-15m90-10-90 45v-35l-90-45" fill="none"/>
     <path d="m110 305 30 15 30-15m-30 15v-35l30-15m-30 15-30-15" fill="none"/>
    </g>
    <g fill="none" stroke="#00c" stroke-dasharray="6, 9" stroke-width="1">
     <path transform="translate(240,235)" d="m0 0v80l120 60v-80zm30 15v35l90 45" stroke-width="3"/>
     <path d="m60 325 360-180m-240 150 180-90m-180 125 180-90m-180 145 360-180m-270 170 180-90m-180 135 180-90"/>
    </g>
   </g>
  </g>
 </g>
</svg>
