<?xml version="1.0" encoding="UTF-8"?>
<svg version="1.1" viewBox="0 0 780 780.13" xmlns="http://www.w3.org/2000/svg" xmlns:xlink="http://www.w3.org/1999/xlink">
 <defs>
  <filter id="filter10527" color-interpolation-filters="sRGB">
   <feGaussianBlur stdDeviation="0.17113925"/>
  </filter>
  <filter id="filter5220" color-interpolation-filters="sRGB">
   <feGaussianBlur stdDeviation="0.66459637"/>
  </filter>
  <filter id="filter4140" x="-.25" y="-.25" width="1.5" height="1.5" color-interpolation-filters="sRGB">
   <feGaussianBlur in="SourceAlpha" result="blur" stdDeviation="2"/>
   <feColorMatrix result="bluralpha" values="1 0 0 0 0 0 1 0 0 0 0 0 1 0 0 0 0 0 0.5 0 "/>
   <feOffset dx="0" dy="4" in="bluralpha" result="offsetBlur"/>
   <feMerge>
    <feMergeNode in="offsetBlur"/>
    <feMergeNode in="SourceGraphic"/>
   </feMerge>
  </filter>
  <linearGradient id="linearGradient4166">
   <stop stop-color="#ebc99a" offset="0"/>
   <stop stop-color="#fcebd3" offset=".78174"/>
   <stop stop-color="#fff" offset="1"/>
  </linearGradient>
  <linearGradient id="linearGradient11137" x1="38.529" x2="53.08" y1="472.79" y2="472.99" gradientTransform="matrix(3.0154 0 0 3.2451 -342.78 -781.49)" gradientUnits="userSpaceOnUse" xlink:href="#linearGradient4166"/>
  <linearGradient id="linearGradient11139" x1="38.529" x2="53.08" y1="472.79" y2="472.99" gradientTransform="matrix(3.0154 0 0 3.2784 369.97 -797.88)" gradientUnits="userSpaceOnUse" xlink:href="#linearGradient4166"/>
 </defs>
 <g>
  <rect x="3.2519987" y="3.3724999" width="776.74799" height="776.75751" fill="#fff"/>
 </g>
 <g>
  <g transform="translate(56.812,-2.3746)">
   <g transform="translate(-5.0288,-4.0629)">
    <path d="m428.12 376.82c-1.0894 0.0686-20.202 0.0918-21.336 0.0759-28.096-0.3942-68.904-24.794-76.466 23.158l-1.0102 33.335c-8.0713 17.939-14.217 52.572-10.989 76.772 5.2484 39.344 31.222 61.354 67.558 80.812 8.2934 4.0061 17.725 6.1625 26.183 6.9132 0.70084 0.0622 5.395 0.11477 6.0812 0.15792" fill="none" stroke="#0f0" stroke-width=".25"/>
    <g stroke="#000">
     <rect transform="scale(-1,1)" x="-234.00999" y="694.23999" width="54.382999" height="82.468002" ry="0" fill="url(#linearGradient11137)" stroke-width="6"/>
     <rect x="478.73999" y="693" width="54.382999" height="83.314003" ry="0" fill="url(#linearGradient11139)" stroke-width="6"/>
     <path d="m344.32 577.12c-14.487-3.4292-29.205-14.023-35.477-25.537-2.5947-4.763-4.7177-9.1076-4.7177-9.6549s4.8374-0.27018 10.75 0.61527c23.786 3.5632 64.566 4.1427 79.922 1.1358 8.2259-1.6107 15.269-2.6273 15.651-2.2592 1.9104 1.8409-10.316 19.868-17.016 25.089-12.582 9.8046-33.46 14.315-49.112 10.611z" fill="#fad8a8" stroke-width=".97145998"/>
     <path transform="matrix(3.0154,0,0,3.0154,113.07,-2393.3)" d="m72.402 962.21c-4.4959 0-8.0938 3.6291-8.0938 8.125 0 0.99566 0.17477 1.9326 0.5 2.8125 0.63048 6.6e-4 1.7252 0.12159 3 0.3125 7.8882 1.1816 21.407 1.3722 26.5 0.375 2.0886-0.40895 3.9054-0.68968 4.7188-0.75 0.3102-0.86181 0.46875-1.7787 0.46875-2.75 0-4.4959-3.5979-8.125-8.0938-8.125h-19z" fill="#f7e6c7" filter="url(#filter4140)" stroke-width=".50099999"/>
     <path d="m269.59 541.27c-47.604 6.2642-89.615 45.668-93.323 111.86-0.33212 5.9286-8.8506 61.312-8.0448 67.014 10.798-3.9526 54.577 9.0843 66.719 8.6091l-0.87538 47.902h245.52l0.70817-48.459 61.271-11.519c0.347-3.7768 0.3122-48.911-0.1469-61.641-2.0904-57.968-28.265-121.21-101.88-119.49l-27.104 0.63556c-3.3005 25.753-26.134 43.833-53.901 43.833s-51.836-17.444-55.137-43.198z" fill="#f00" stroke-width="6"/>
    </g>
    <path d="m257.96 781.09 0.44134-54.298c6.1272 5.0659 12.235 10.005 17.212 7.6208-16.815-15.841-27.245-41.329-38.395-65.728l-4.2087 59.692-39.147-6.372c0.45216-84.827 14.959-100.85 25.923-123.34 13.894-21.548 35.032-40.362 81.204-47.391 35.7 34.389 71.037 42.043 111.43-0.23822 26.098 3.0951 51.457 9.0962 71.936 34.293 15.647 17.213 29.905 54.581 35.056 134.73l-37.578 7.3631-6.3037-61.121c-10.457 24.989-21.35 49.183-36.189 66.205 4.781 4.3268 11.258-0.2382 17.212-6.668l-2.2066 54.297z" fill="#1a1a1a" filter="url(#filter5220)" opacity=".26341002"/>
    <text transform="scale(.92875 1.0767)" x="272.86475" y="468.29642" fill="#ffffff" font-family="'Lobster 1.4'" font-size="41.5909996px" letter-spacing="0px" word-spacing="0px" style="line-height:125%" line-height="125%" xml:space="preserve">       <tspan x="272.86475" y="468.29642" fill="#ffffff" font-family="'Lobster 1.4'">Nadiesabe </tspan>     </text>
    <g fill="#fff">
     <path d="m100.14 381.9c0 0.88039-1.4274 1.594-3.1881 1.594-1.7608 0-3.1881-0.7137-3.1881-1.594 0-0.88037 1.4274-1.594 3.1881-1.594 1.7608 0 3.1881 0.7137 3.1881 1.594z"/>
     <path d="m100.14 381.46c0 0.71839-1.4274 1.3007-3.1881 1.3007-1.7608 0-3.1881-0.58237-3.1881-1.3007 0-0.71838 1.4274-1.3007 3.1881-1.3007 1.7608 0 3.1881 0.58237 3.1881 1.3007z"/>
     <path d="m198.44 379.7c0 0.64995-0.9801 1.1768-2.189 1.1768-1.209 0-2.189-0.52689-2.189-1.1768 0-0.64993 0.9801-1.1768 2.189-1.1768 1.209 0 2.189 0.52689 2.189 1.1768z"/>
     <path d="m226.36 384.34c0 0.69842-0.5352 1.2646-1.1955 1.2646s-1.1955-0.56618-1.1955-1.2646c0-0.69841 0.5352-1.2646 1.1955-1.2646s1.1955 0.56618 1.1955 1.2646z"/>
    </g>
    <g stroke="#520">
     <path d="m537.87 348.17c25.231-6.0785 32.851 5.5545 38.227 19.324 20.754 57.049-44.793 92.281-52.51 97.038-7.7165 4.7577-22.894 1.7677-34.026 2.1004" fill="#f1b484" stroke-width="5.05840015"/>
     <path d="m529.46 438.91c16.172-22.407 19.997-37.865 11.552-49.359-11.452 21.061-26.222 37.475-40.328 54.82l19.534-46.629c22.997-12.009 25.617-33.432 41.798-28.145-9.5814 6.2065-22.029 12.516-14.283 18.484 16.173 31.247-18.273 50.83-18.273 50.83z" fill="#520" stroke-width=".42153001"/>
     <path d="m174.76 351.53c-25.231-6.0785-32.851 5.5545-38.227 19.324-20.755 57.049 44.793 92.281 52.51 97.038 7.7164 4.7577 22.894 1.7677 34.026 2.1004" fill="#f1b484" stroke-width="5.05840015"/>
     <path d="m314.14 540.62c-99.002-47.42-136.35-125.6-120.87-222.11 3.3117-20.641 10.59-54.772 12.877-76.5 4.8207-45.798 9.7397-60.489 24.593-73.447 9.6229-8.3952 15.094-8.9393 52.789-5.2496 52.604 5.1491 95.938 5.1524 151.98 0.0118 41.871-3.8407 44.184-3.524 54.787 7.4982 13.792 14.338 21.118 39.106 21.155 71.524 0.017 13.726 0.1517 42.444 6.1115 65.268 13.277 50.848 9.5404 98.886-5.9221 134.76-26.927 62.465-102.66 108.09-152.2 107.86-13.018-0.0595-33.402-4.3869-45.296-9.6164v3e-5z" fill="#f7e6c7" stroke-width="6.74450016"/>
    </g>
    <path d="m263.28 159.77c-12.013 0.0319-24.978 3.8483-32.713 13.797-10.067 12.589-14.486 28.774-16.345 44.663-1.4781 11.642-2.469 23.362-2.8593 35.095-0.1839 6.4697-0.2134 12.943-0.1332 19.414-4.6777 6.6951-11.141 13.243-11.235 22.017 0.046 15.909 2.4081 31.687 4.3533 47.438 4.6435 32.256 12.418 64.264 25.746 93.982 8.793 20.242 19.905 39.806 35.505 55.391 19.792 20.585 45.073 35.139 71.85 43.913 12.1 4.0605 25.384 5.2151 37.713 1.4863 10.548-2.9521 20.792-7.0548 30.662-11.854 25.884-12.901 48.891-32.314 64.914-56.894 9.6544-14.479 16.581-30.611 22.996-46.793 9.3842-24.474 15.379-50.197 19.072-76.179 2.3388-15.993 4.3299-32.088 4.8373-48.261-0.1752-7.0861-2.6667-14.213-7.6572-19.246-2.5333-3.0615-3.8493-7.0956-3.3265-11.088-0.15-14.838-0.738-29.685-2.5992-44.412-1.8299-16.54-5.5645-33.609-15.61-47.112-5.3134-7.1933-13.192-12.299-21.888-13.909-13.22-2.9374-26.854-1.0243-40.102 0.69359-24.9 3.5884-49.744 9.5314-75.052 8.2572-26.6-1.1753-52.482-8.5947-79.027-10.278-3.0333-0.0838-6.067-0.23705-9.1015-0.12107z" fill="#f95" opacity=".65895996"/>
    <path d="m407.87 367.49c-11.964 2.8258-12.194-8.891-6.0913-15.543 28.267-23.437 62.58-13.971 67.423-8.8217 7.0635 3.267 7.1487 16.836-2.3105 17.433-19.604 1.5007-39.417 1.9519-59.021 6.9313z" fill="#fff"/>
    <path d="m439.11 338.9c-2.3869 0.18593-4.8582 0.52128-7.3712 1.0251-5.3822 2.114-9.1287 7.0217-9.1287 12.79 0 4.5256 2.3058 8.5378 5.9067 11.081 6.8035-0.90277 13.603-1.4784 20.405-1.9527 2.2783-2.4424 3.6612-5.6437 3.6612-9.1286 0-7.195-5.8857-13.081-13.424-13.815-0.017 1e-3 -0.032-1e-3 -0.049 0z" fill="#384d01" stroke="#1d2b01" stroke-width="1.56210005"/>
    <path transform="matrix(2.4836,0,0,2.4836,-1977.6,-706.51)" d="m975.38 426.59a2.9897 2.9274 0 1 1 -5.9793 0 2.9897 2.9274 0 1 1 5.9793 0z"/>
    <path d="m437.73 353.74-14.768-6.2349c2.0458-3.3614 4.6275-5.3281 7.1417-7.4701z" fill="#fff"/>
    <path d="m325.62 423.04c3.7247 11.257 11.49 21.582 18.707 24.893 9.1479 4.1969 27.364 4.2253 35.657-1.4731 8.5439-5.8706 11.525-16.979 19.215-25.676-21.195 9.2249-47.793 12.162-73.579 2.2567z" fill="#d38d5f" opacity=".71920004"/>
    <path d="m324.94 422.15c8.723 4.4451 13.856 3.2617 23.104 3.6341 6.783 0.27312 6.0302 3.3604 14.805 2.9343 8.9616-0.43514 9.5425-3.1341 15.434-3.8124 7.5524-0.86942 15.881-0.63847 20.692-5.8495-1.448 6.5316-16.544 10.445-26.291 13.93-4.9599 1.7735-3.7823 3.6995-9.6261 4.1334-6.0774 0.45131-8.3082-3.5015-13.769-4.9684-9.0708-2.4367-21.411-1.9147-24.35-10.002z" fill="#6f3301"/>
    <path d="m503.84 329.74c-26.724-30.323-60.444-40.007-103.01-23.61-5.1238 2.2157-8.7905 1.386-8.3157-4.9555 17.283-23.779 90.696-21.312 111.32 7.5614z" fill="#472003"/>
    <g fill="#520">
     <path d="m187.39 383.15c-2.0994-20.346-10.038-28.983-16.592-40.398-26.024-136.18-1.3595-191.72 49.777-236.44-0.8486 8.2732-5.2053 18.656 1.1852 22.575 17.374-36.187 48.299-58.446 74.666-79.607l2.3705 27.328c9.5291-13.275 20.984-31.305 32-38.615 1.5471 10.281 1.5106 19.768 5.9257 31.486-0.387-13.94 4.3544-26.851 11.852-39.209 4.1362 6.5469 8.4155 12.95 9.4812 22.575l5.9263-39.209c11.884 19.308 23.143 38.992 27.259 62.973l-5.3333-39.804c16.776 9.9206 31.968 32.672 34.963 48.121l-2.371-32.08c27.786 13.071 47.433 35.931 67.555 58.22l2.9627-13.664c51.785 47.973 85.387 95.043 37.908 283.67-17.505-50.519-6.391-100.98-25.47-116.74 2.4426-144.33-79.496-92.32-135.37-87.636-47.969 4.0216-163.31-65.792-149.06 95.953-23.412 21.255-29.384 62.582-29.63 110.5z" stroke="#2b1100" stroke-width="5.05840015"/>
     <path transform="matrix(1.6861,0,0,1.6861,-1699.6,-452.5)" d="m1247.7 468.03c9.7262-6.6429 16.971-6.9197 25.368-6.8705l4.7565 4.228c-9.748-2.3826-19.496-1.9253-29.244 5.4612-2.2557 0.0415-1.3191-1.5132-0.8808-2.8187z" filter="url(#filter10527)"/>
     <path d="m221.77 307.03c30.2-46.331 100.09-16.526 98.359-12.192 13.01 3.2712 10.216 13.961-4.1795 8.5421-14.169-5.334-57.327-22.219-89.686 17.033-10.295 15.96-13.228-4.2385-4.4941-13.384z"/>
    </g>
    <g stroke="#520">
     <path d="m401.39 351.74c17.98-13.77 35.46-18.79 60.16-13.515 8.7878 1.8768 12.472 8.4065 12.303 13.095" fill="none" stroke-width="1.68610001px"/>
     <path d="m321.39 369.33c-9.7465-8.6651-53.478-4.8451-51.388-1.1882 7.4806-11.197 24.226-6.9515 38.318-7.129 0.6336-4.4354-30.574-14.498-65.943-5.3467-0.6975-4.5246 1.2936-7.2567 5.3469-8.6142 21.596-6.3397 32.564-4.2841 45.447-1.4852l16.634 9.8024c-3.0416-6.7951-22.872-19.011-22.872-19.011s22.971-1.5356 34.457 32.972z" fill="#520" stroke-width=".42153001"/>
     <path d="m309.27 462.01c-9.2789 13.488 94.327 23.124 100.82 1.8904 0.076-0.25114-2.6936-2.5277-6.332-0.73938-17.524 8.6137-69.954 9.0072-88.82-1.1303-3.5023-1.8819-5.5334-0.21565-5.6676-0.0208z" fill="#520" stroke-width="1.68610001px"/>
    </g>
    <path d="m189.5 341.01c-14.843-145.72 7.7869-133.66 20.671-166.36 18.138-1.2105 48.081-39.847 73.939-65.535 0.389 12.943 2.6319 25.102 13.516 33.608l21.466-46.211 14.311 30.247 10.336-42.85 12.721 39.489 4.7701-45.371 21.466 47.051 3.1802-21.005 24.647 29.407c10.612-5.823 10.864-13.836 11.131-21.845l33.392 26.046 48.498 40.329c24.992 61.566 20.722 115.4 21.466 170.56-12.359-44.012-11.44-71.398-22.626-85.7-5.8381-45.604 5.8997-106.68-81.331-97.883-21.563 3.5398-38.103 9.9329-57.713 11.189-22.288 1.4273-44.148-5.7418-74.655-10.769-58.918-3.436-80.608 34.276-71.36 107.55-18.672 11.921-24.648 38.386-27.827 68.056z" fill="#2b1100" opacity=".52600995" stroke="#2b1100" stroke-width=".41007"/>
    <path d="m183.17 442.27c-16.172-22.407-19.997-37.865-11.552-49.359 11.452 21.061 26.222 37.475 40.328 54.82l-19.534-46.629c-22.997-12.009-25.617-33.432-41.798-28.145 9.5815 6.2065 22.029 12.516 14.283 18.484-16.173 31.247 18.274 50.83 18.274 50.83z" fill="#520" stroke="#520" stroke-width=".42153001"/>
   </g>
   <rect x="-53.560001" y="5.7470999" width="773.48999" height="773.48999" fill-opacity="0" stroke-opacity="0"/>
  </g>
  <g transform="translate(59.4699,-2.3746)">
   <g transform="translate(2.7872)" fill="#fff">
    <path d="m356.97 661.47c-15.23-7.0899-27.251-13.919-29.32-16.656-1.3801-1.8262-5.0415-11.926-10.25-28.275-4.6159-14.488-5.6769-19.112-4.7352-20.638 1.0218-1.6554 2.1058-1.569 8.1097 0.64625 2.8075 1.0359 5.2808 1.6359 5.4963 1.3335 0.21557-0.30242 0.60165-2.2896 0.85797-4.4159 0.48806-4.0488 2.1866-6.4757 4.532-6.4754 0.69414 7e-5 3.0876 0.85203 5.3189 1.8932 5.4328 2.5352 7.007 2.4916 8.4996-0.23554 0.68721-1.2557 2.1193-2.5122 3.3788-2.9646 1.9758-0.70963 2.6978-0.56564 7.5087 1.4976 7.5296 3.2292 25.432 12.597 27.932 14.616 2.8022 2.2627 2.7406 4.4432-0.43124 15.257-2.8715 9.7903-9.821 30.92-12.801 38.924-2.0702 5.5592-4.3024 8.4063-6.5759 8.3884-0.72932-6e-3 -4.1134-1.3082-7.5202-2.8941zm1.0393-16.665c-6.3191-19.515-9.7562-28.599-11.397-30.127-0.82257-0.76556-2.9116-2.2333-4.6423-3.2616-4.2634-2.5331-23.552-12.276-24.304-12.276-1.2637 0-0.46925 3.4713 3.4629 15.13 7.194 21.33 7.4631 21.591 9.2919 9.0374 1.1246-7.7179 1.6138-8.4852 3.806-5.9695 3.1051 3.5639 21.956 29.959 21.611 30.259-0.42931 0.37224-7.3271-2.536-17.015-7.1737-7.1813-3.438-9.9578-4.242-9.9578-2.8841 0 1.4526 3.0134 5.6628 5.1895 7.2504 4.4383 3.2381 26.621 13.901 27.486 13.212 0.3243-0.25805-1.265-6.1966-3.5317-13.196zm6.5866-19.033c-0.0506-19.56 0.41866-18.265-8.439-23.286-8.855-5.0198-21.987-11.137-23.405-10.902-1.8033 0.29789-2.2753 7.6247-0.63135 9.8003 1.1259 1.49 5.9434 3.7096 12.448 5.7356 9.4143 2.9321 14.792 11.628 16.046 25.946 0.73065 8.3461 1.6973 11.52 3.1304 10.276 0.65791-0.57083 0.8831-5.219 0.85116-17.569zm9.219 7.9044c4.9027-13.512 8.1578-24.179 8.1578-26.734 0-2.3669-0.19839-2.5514-6.8228-6.3425-10.561-6.0439-22.132-11.691-23.955-11.691-1.7307 0-2.7931 1.9822-2.286 4.2655 0.14812 0.66685 3.4234 2.8764 7.6257 5.1444 8.5535 4.6163 11.032 6.7619 12.186 10.551 0.45992 1.5087 1.8587 3.6693 3.1084 4.8012l2.2722 2.058-2.3569 7.6857c-2.3771 7.7516-3.6921 16.843-2.7457 18.981 0.77239 1.7452 1.4882 0.44897 4.8147-8.719z"/>
    <path d="m333.28 700.17c-2.0068-0.47986-52.694-26.612-56.624-29.192-1.3261-0.87075-2.2276-1.8405-2.0036-2.1548 0.22407-0.31437 3.3005-2.2054 6.8366-4.2024s9.9758-6.0421 14.311-8.9893c10.556-7.1765 14.213-8.7778 20.05-8.7778 3.4252 0 5.3374 0.37518 7.6459 1.5001 5.5956 2.7268 4.8486 5.3692-1.0989 3.8867-9.0229-2.249-11.532-1.5472-22.379 6.2595-9.354 6.7324-9.5439 6.9529-7.2691 8.4536 2.3176 1.5295 29.457 15.027 37.279 18.542 4.1437 1.8612 6.4452 2.5491 7.5306 2.2503 0.8597-0.23656 5.243-3.9855 9.7409-8.331 4.4977-4.3454 9.291-8.359 10.652-8.919 1.4165-0.58285 4.3841-1.0181 6.9412-1.0181h4.4667l4.1535-4.4574c5.1877-5.5672 9.0022-7.2906 19.144-8.6516 12.09-1.6217 11.742-1.5239 10.308-2.8978-0.67489-0.64661-4.9299-3.1202-9.4557-5.4967-10.147-5.3286-13.023-7.1685-13.023-8.3318 0-2.6629 3.413-1.4538 22.497 7.9696 12.251 6.0494 17.334 8.8774 17.334 9.6447 0 0.27987-7.8831 4.5984-17.518 9.5967-9.6347 4.9983-18.386 9.7444-19.446 10.547-1.0602 0.80242-3.1006 3.0487-4.5342 4.9918-3.8017 5.153-5.9541 6.2706-12.092 6.2782-5.8924 8e-3 -8.9199 1.0656-20.119 7.033-8.0339 4.2808-10.562 5.1281-13.327 4.4668z"/>
   </g>
   <text transform="scale(.89341 1.1193)" x="310.65515" y="667.72229" fill="#ffffff" font-family="Tahoma" font-size="43.25600052px" font-weight="bold" letter-spacing="0px" word-spacing="0px" style="line-height:125%" line-height="125%" xml:space="preserve">         <tspan x="310.65515" y="667.72229">Clip Art </tspan>      </text>
  </g>
 </g>
</svg>
